<?xml version="1.0" encoding="utf-8" standalone="no"?>
<!DOCTYPE svg PUBLIC "-//W3C//DTD SVG 1.1//EN"
  "http://www.w3.org/Graphics/SVG/1.1/DTD/svg11.dtd">
<svg xmlns:xlink="http://www.w3.org/1999/xlink" width="719.28pt" height="459.78pt" viewBox="0 0 719.28 459.78" xmlns="http://www.w3.org/2000/svg" version="1.1">
 <metadata>
  <rdf:RDF xmlns:dc="http://purl.org/dc/elements/1.1/" xmlns:cc="http://creativecommons.org/ns#" xmlns:rdf="http://www.w3.org/1999/02/22-rdf-syntax-ns#">
   <cc:Work>
    <dc:type rdf:resource="http://purl.org/dc/dcmitype/StillImage"/>
    <dc:date>2026-03-11T17:01:25.172170</dc:date>
    <dc:format>image/svg+xml</dc:format>
    <dc:creator>
     <cc:Agent>
      <dc:title>Matplotlib v3.10.8, https://matplotlib.org/</dc:title>
     </cc:Agent>
    </dc:creator>
   </cc:Work>
  </rdf:RDF>
 </metadata>
 <defs>
  <style type="text/css">*{stroke-linejoin: round; stroke-linecap: butt}</style>
 </defs>
 <g id="figure_1">
  <g id="patch_1">
   <path d="M 0 459.78 
L 719.28 459.78 
L 719.28 0 
L 0 0 
z
" style="fill: #ffffff"/>
  </g>
  <g id="axes_1">
   <g id="patch_2">
    <path d="M 7.2 376.92 
L 146.780198 376.92 
L 146.780198 49.32 
L 7.2 49.32 
z
" style="fill: #ffffff"/>
   </g>
   <g id="patch_3">
    <path d="M 38.605545 376.92 
L 115.374653 376.92 
L 115.374653 363.816 
L 38.605545 363.816 
z
" clip-path="url(#p61b889dc7a)" style="fill: #4472c4; stroke: #ffffff; stroke-width: 0.5; stroke-linejoin: miter"/>
   </g>
   <g id="patch_4">
    <path d="M 38.605545 363.816 
L 115.374653 363.816 
L 115.374653 357.264 
L 38.605545 357.264 
z
" clip-path="url(#p61b889dc7a)" style="fill: #70ad47; stroke: #ffffff; stroke-width: 0.5; stroke-linejoin: miter"/>
   </g>
   <g id="patch_5">
    <path d="M 38.605545 357.264 
L 115.374653 357.264 
L 115.374653 344.16 
L 38.605545 344.16 
z
" clip-path="url(#p61b889dc7a)" style="fill: #e05c5c; stroke: #ffffff; stroke-width: 0.5; stroke-linejoin: miter"/>
   </g>
   <g id="patch_6">
    <path d="M 38.605545 344.16 
L 115.374653 344.16 
L 115.374653 49.32 
L 38.605545 49.32 
z
" clip-path="url(#p61b889dc7a)" style="fill: #f0f0f0; stroke: #ffffff; stroke-width: 0.5; stroke-linejoin: miter"/>
   </g>
   <g id="patch_7">
    <path d="M 38.605545 376.92 
L 115.374653 376.92 
L 115.374653 49.32 
L 38.605545 49.32 
L 38.605545 376.92 
z
" clip-path="url(#p61b889dc7a)" style="fill: none; stroke: #aaaaaa; stroke-width: 1.2; stroke-linejoin: miter"/>
   </g>
   <g id="matplotlib.axis_1"/>
   <g id="matplotlib.axis_2"/>
   <g id="line2d_1">
    <path d="M 38.605545 131.22 
L 115.374653 131.22 
" clip-path="url(#p61b889dc7a)" style="fill: none; stroke-dasharray: 5.18,2.24; stroke-dashoffset: 0; stroke: #cc3333; stroke-opacity: 0.85; stroke-width: 1.4"/>
   </g>
   <g id="text_1">
    <!-- Free Space -->
    <g style="fill: #666666" transform="translate(57.235662 198.72675) scale(0.072 -0.072)">
     <defs>
      <path id="DejaVuSans-46" d="M 628 4666 
L 3309 4666 
L 3309 4134 
L 1259 4134 
L 1259 2759 
L 3109 2759 
L 3109 2228 
L 1259 2228 
L 1259 0 
L 628 0 
L 628 4666 
z
" transform="scale(0.015625)"/>
      <path id="DejaVuSans-72" d="M 2631 2963 
Q 2534 3019 2420 3045 
Q 2306 3072 2169 3072 
Q 1681 3072 1420 2755 
Q 1159 2438 1159 1844 
L 1159 0 
L 581 0 
L 581 3500 
L 1159 3500 
L 1159 2956 
Q 1341 3275 1631 3429 
Q 1922 3584 2338 3584 
Q 2397 3584 2469 3576 
Q 2541 3569 2628 3553 
L 2631 2963 
z
" transform="scale(0.015625)"/>
      <path id="DejaVuSans-65" d="M 3597 1894 
L 3597 1613 
L 953 1613 
Q 991 1019 1311 708 
Q 1631 397 2203 397 
Q 2534 397 2845 478 
Q 3156 559 3463 722 
L 3463 178 
Q 3153 47 2828 -22 
Q 2503 -91 2169 -91 
Q 1331 -91 842 396 
Q 353 884 353 1716 
Q 353 2575 817 3079 
Q 1281 3584 2069 3584 
Q 2775 3584 3186 3129 
Q 3597 2675 3597 1894 
z
M 3022 2063 
Q 3016 2534 2758 2815 
Q 2500 3097 2075 3097 
Q 1594 3097 1305 2825 
Q 1016 2553 972 2059 
L 3022 2063 
z
" transform="scale(0.015625)"/>
      <path id="DejaVuSans-20" transform="scale(0.015625)"/>
      <path id="DejaVuSans-53" d="M 3425 4513 
L 3425 3897 
Q 3066 4069 2747 4153 
Q 2428 4238 2131 4238 
Q 1616 4238 1336 4038 
Q 1056 3838 1056 3469 
Q 1056 3159 1242 3001 
Q 1428 2844 1947 2747 
L 2328 2669 
Q 3034 2534 3370 2195 
Q 3706 1856 3706 1288 
Q 3706 609 3251 259 
Q 2797 -91 1919 -91 
Q 1588 -91 1214 -16 
Q 841 59 441 206 
L 441 856 
Q 825 641 1194 531 
Q 1563 422 1919 422 
Q 2459 422 2753 634 
Q 3047 847 3047 1241 
Q 3047 1584 2836 1778 
Q 2625 1972 2144 2069 
L 1759 2144 
Q 1053 2284 737 2584 
Q 422 2884 422 3419 
Q 422 4038 858 4394 
Q 1294 4750 2059 4750 
Q 2388 4750 2728 4690 
Q 3069 4631 3425 4513 
z
" transform="scale(0.015625)"/>
      <path id="DejaVuSans-70" d="M 1159 525 
L 1159 -1331 
L 581 -1331 
L 581 3500 
L 1159 3500 
L 1159 2969 
Q 1341 3281 1617 3432 
Q 1894 3584 2278 3584 
Q 2916 3584 3314 3078 
Q 3713 2572 3713 1747 
Q 3713 922 3314 415 
Q 2916 -91 2278 -91 
Q 1894 -91 1617 61 
Q 1341 213 1159 525 
z
M 3116 1747 
Q 3116 2381 2855 2742 
Q 2594 3103 2138 3103 
Q 1681 3103 1420 2742 
Q 1159 2381 1159 1747 
Q 1159 1113 1420 752 
Q 1681 391 2138 391 
Q 2594 391 2855 752 
Q 3116 1113 3116 1747 
z
" transform="scale(0.015625)"/>
      <path id="DejaVuSans-61" d="M 2194 1759 
Q 1497 1759 1228 1600 
Q 959 1441 959 1056 
Q 959 750 1161 570 
Q 1363 391 1709 391 
Q 2188 391 2477 730 
Q 2766 1069 2766 1631 
L 2766 1759 
L 2194 1759 
z
M 3341 1997 
L 3341 0 
L 2766 0 
L 2766 531 
Q 2569 213 2275 61 
Q 1981 -91 1556 -91 
Q 1019 -91 701 211 
Q 384 513 384 1019 
Q 384 1609 779 1909 
Q 1175 2209 1959 2209 
L 2766 2209 
L 2766 2266 
Q 2766 2663 2505 2880 
Q 2244 3097 1772 3097 
Q 1472 3097 1187 3025 
Q 903 2953 641 2809 
L 641 3341 
Q 956 3463 1253 3523 
Q 1550 3584 1831 3584 
Q 2591 3584 2966 3190 
Q 3341 2797 3341 1997 
z
" transform="scale(0.015625)"/>
      <path id="DejaVuSans-63" d="M 3122 3366 
L 3122 2828 
Q 2878 2963 2633 3030 
Q 2388 3097 2138 3097 
Q 1578 3097 1268 2742 
Q 959 2388 959 1747 
Q 959 1106 1268 751 
Q 1578 397 2138 397 
Q 2388 397 2633 464 
Q 2878 531 3122 666 
L 3122 134 
Q 2881 22 2623 -34 
Q 2366 -91 2075 -91 
Q 1284 -91 818 406 
Q 353 903 353 1747 
Q 353 2603 823 3093 
Q 1294 3584 2113 3584 
Q 2378 3584 2631 3529 
Q 2884 3475 3122 3366 
z
" transform="scale(0.015625)"/>
     </defs>
     <use xlink:href="#DejaVuSans-46"/>
     <use xlink:href="#DejaVuSans-72" transform="translate(50.269531 0)"/>
     <use xlink:href="#DejaVuSans-65" transform="translate(89.132812 0)"/>
     <use xlink:href="#DejaVuSans-65" transform="translate(150.65625 0)"/>
     <use xlink:href="#DejaVuSans-20" transform="translate(212.179688 0)"/>
     <use xlink:href="#DejaVuSans-53" transform="translate(243.966797 0)"/>
     <use xlink:href="#DejaVuSans-70" transform="translate(307.443359 0)"/>
     <use xlink:href="#DejaVuSans-61" transform="translate(370.919922 0)"/>
     <use xlink:href="#DejaVuSans-63" transform="translate(432.199219 0)"/>
     <use xlink:href="#DejaVuSans-65" transform="translate(487.179688 0)"/>
    </g>
   </g>
   <g id="text_2">
    <!-- Stage 1 -->
    <g style="fill: #333333" transform="translate(60.653497 406.310672) scale(0.085 -0.085)">
     <defs>
      <path id="DejaVuSans-74" d="M 1172 4494 
L 1172 3500 
L 2356 3500 
L 2356 3053 
L 1172 3053 
L 1172 1153 
Q 1172 725 1289 603 
Q 1406 481 1766 481 
L 2356 481 
L 2356 0 
L 1766 0 
Q 1100 0 847 248 
Q 594 497 594 1153 
L 594 3053 
L 172 3053 
L 172 3500 
L 594 3500 
L 594 4494 
L 1172 4494 
z
" transform="scale(0.015625)"/>
      <path id="DejaVuSans-67" d="M 2906 1791 
Q 2906 2416 2648 2759 
Q 2391 3103 1925 3103 
Q 1463 3103 1205 2759 
Q 947 2416 947 1791 
Q 947 1169 1205 825 
Q 1463 481 1925 481 
Q 2391 481 2648 825 
Q 2906 1169 2906 1791 
z
M 3481 434 
Q 3481 -459 3084 -895 
Q 2688 -1331 1869 -1331 
Q 1566 -1331 1297 -1286 
Q 1028 -1241 775 -1147 
L 775 -588 
Q 1028 -725 1275 -790 
Q 1522 -856 1778 -856 
Q 2344 -856 2625 -561 
Q 2906 -266 2906 331 
L 2906 616 
Q 2728 306 2450 153 
Q 2172 0 1784 0 
Q 1141 0 747 490 
Q 353 981 353 1791 
Q 353 2603 747 3093 
Q 1141 3584 1784 3584 
Q 2172 3584 2450 3431 
Q 2728 3278 2906 2969 
L 2906 3500 
L 3481 3500 
L 3481 434 
z
" transform="scale(0.015625)"/>
      <path id="DejaVuSans-31" d="M 794 531 
L 1825 531 
L 1825 4091 
L 703 3866 
L 703 4441 
L 1819 4666 
L 2450 4666 
L 2450 531 
L 3481 531 
L 3481 0 
L 794 0 
L 794 531 
z
" transform="scale(0.015625)"/>
     </defs>
     <use xlink:href="#DejaVuSans-53"/>
     <use xlink:href="#DejaVuSans-74" transform="translate(63.476562 0)"/>
     <use xlink:href="#DejaVuSans-61" transform="translate(102.685547 0)"/>
     <use xlink:href="#DejaVuSans-67" transform="translate(163.964844 0)"/>
     <use xlink:href="#DejaVuSans-65" transform="translate(227.441406 0)"/>
     <use xlink:href="#DejaVuSans-20" transform="translate(288.964844 0)"/>
     <use xlink:href="#DejaVuSans-31" transform="translate(320.751953 0)"/>
    </g>
    <!-- Session Start -->
    <g style="fill: #333333" transform="translate(49.041701 417.120547) scale(0.085 -0.085)">
     <defs>
      <path id="DejaVuSans-73" d="M 2834 3397 
L 2834 2853 
Q 2591 2978 2328 3040 
Q 2066 3103 1784 3103 
Q 1356 3103 1142 2972 
Q 928 2841 928 2578 
Q 928 2378 1081 2264 
Q 1234 2150 1697 2047 
L 1894 2003 
Q 2506 1872 2764 1633 
Q 3022 1394 3022 966 
Q 3022 478 2636 193 
Q 2250 -91 1575 -91 
Q 1294 -91 989 -36 
Q 684 19 347 128 
L 347 722 
Q 666 556 975 473 
Q 1284 391 1588 391 
Q 1994 391 2212 530 
Q 2431 669 2431 922 
Q 2431 1156 2273 1281 
Q 2116 1406 1581 1522 
L 1381 1569 
Q 847 1681 609 1914 
Q 372 2147 372 2553 
Q 372 3047 722 3315 
Q 1072 3584 1716 3584 
Q 2034 3584 2315 3537 
Q 2597 3491 2834 3397 
z
" transform="scale(0.015625)"/>
      <path id="DejaVuSans-69" d="M 603 3500 
L 1178 3500 
L 1178 0 
L 603 0 
L 603 3500 
z
M 603 4863 
L 1178 4863 
L 1178 4134 
L 603 4134 
L 603 4863 
z
" transform="scale(0.015625)"/>
      <path id="DejaVuSans-6f" d="M 1959 3097 
Q 1497 3097 1228 2736 
Q 959 2375 959 1747 
Q 959 1119 1226 758 
Q 1494 397 1959 397 
Q 2419 397 2687 759 
Q 2956 1122 2956 1747 
Q 2956 2369 2687 2733 
Q 2419 3097 1959 3097 
z
M 1959 3584 
Q 2709 3584 3137 3096 
Q 3566 2609 3566 1747 
Q 3566 888 3137 398 
Q 2709 -91 1959 -91 
Q 1206 -91 779 398 
Q 353 888 353 1747 
Q 353 2609 779 3096 
Q 1206 3584 1959 3584 
z
" transform="scale(0.015625)"/>
      <path id="DejaVuSans-6e" d="M 3513 2113 
L 3513 0 
L 2938 0 
L 2938 2094 
Q 2938 2591 2744 2837 
Q 2550 3084 2163 3084 
Q 1697 3084 1428 2787 
Q 1159 2491 1159 1978 
L 1159 0 
L 581 0 
L 581 3500 
L 1159 3500 
L 1159 2956 
Q 1366 3272 1645 3428 
Q 1925 3584 2291 3584 
Q 2894 3584 3203 3211 
Q 3513 2838 3513 2113 
z
" transform="scale(0.015625)"/>
     </defs>
     <use xlink:href="#DejaVuSans-53"/>
     <use xlink:href="#DejaVuSans-65" transform="translate(63.476562 0)"/>
     <use xlink:href="#DejaVuSans-73" transform="translate(125 0)"/>
     <use xlink:href="#DejaVuSans-73" transform="translate(177.099609 0)"/>
     <use xlink:href="#DejaVuSans-69" transform="translate(229.199219 0)"/>
     <use xlink:href="#DejaVuSans-6f" transform="translate(256.982422 0)"/>
     <use xlink:href="#DejaVuSans-6e" transform="translate(318.164062 0)"/>
     <use xlink:href="#DejaVuSans-20" transform="translate(381.542969 0)"/>
     <use xlink:href="#DejaVuSans-53" transform="translate(413.330078 0)"/>
     <use xlink:href="#DejaVuSans-74" transform="translate(476.806641 0)"/>
     <use xlink:href="#DejaVuSans-61" transform="translate(516.015625 0)"/>
     <use xlink:href="#DejaVuSans-72" transform="translate(577.294922 0)"/>
     <use xlink:href="#DejaVuSans-74" transform="translate(618.408203 0)"/>
    </g>
   </g>
   <g id="text_3">
    <!-- Context Window -->
    <g style="fill: #555555" transform="translate(46.323302 37.932234) scale(0.075 -0.075)">
     <defs>
      <path id="DejaVuSans-43" d="M 4122 4306 
L 4122 3641 
Q 3803 3938 3442 4084 
Q 3081 4231 2675 4231 
Q 1875 4231 1450 3742 
Q 1025 3253 1025 2328 
Q 1025 1406 1450 917 
Q 1875 428 2675 428 
Q 3081 428 3442 575 
Q 3803 722 4122 1019 
L 4122 359 
Q 3791 134 3420 21 
Q 3050 -91 2638 -91 
Q 1578 -91 968 557 
Q 359 1206 359 2328 
Q 359 3453 968 4101 
Q 1578 4750 2638 4750 
Q 3056 4750 3426 4639 
Q 3797 4528 4122 4306 
z
" transform="scale(0.015625)"/>
      <path id="DejaVuSans-78" d="M 3513 3500 
L 2247 1797 
L 3578 0 
L 2900 0 
L 1881 1375 
L 863 0 
L 184 0 
L 1544 1831 
L 300 3500 
L 978 3500 
L 1906 2253 
L 2834 3500 
L 3513 3500 
z
" transform="scale(0.015625)"/>
      <path id="DejaVuSans-57" d="M 213 4666 
L 850 4666 
L 1831 722 
L 2809 4666 
L 3519 4666 
L 4500 722 
L 5478 4666 
L 6119 4666 
L 4947 0 
L 4153 0 
L 3169 4050 
L 2175 0 
L 1381 0 
L 213 4666 
z
" transform="scale(0.015625)"/>
      <path id="DejaVuSans-64" d="M 2906 2969 
L 2906 4863 
L 3481 4863 
L 3481 0 
L 2906 0 
L 2906 525 
Q 2725 213 2448 61 
Q 2172 -91 1784 -91 
Q 1150 -91 751 415 
Q 353 922 353 1747 
Q 353 2572 751 3078 
Q 1150 3584 1784 3584 
Q 2172 3584 2448 3432 
Q 2725 3281 2906 2969 
z
M 947 1747 
Q 947 1113 1208 752 
Q 1469 391 1925 391 
Q 2381 391 2643 752 
Q 2906 1113 2906 1747 
Q 2906 2381 2643 2742 
Q 2381 3103 1925 3103 
Q 1469 3103 1208 2742 
Q 947 2381 947 1747 
z
" transform="scale(0.015625)"/>
      <path id="DejaVuSans-77" d="M 269 3500 
L 844 3500 
L 1563 769 
L 2278 3500 
L 2956 3500 
L 3675 769 
L 4391 3500 
L 4966 3500 
L 4050 0 
L 3372 0 
L 2619 2869 
L 1863 0 
L 1184 0 
L 269 3500 
z
" transform="scale(0.015625)"/>
     </defs>
     <use xlink:href="#DejaVuSans-43"/>
     <use xlink:href="#DejaVuSans-6f" transform="translate(69.824219 0)"/>
     <use xlink:href="#DejaVuSans-6e" transform="translate(131.005859 0)"/>
     <use xlink:href="#DejaVuSans-74" transform="translate(194.384766 0)"/>
     <use xlink:href="#DejaVuSans-65" transform="translate(233.59375 0)"/>
     <use xlink:href="#DejaVuSans-78" transform="translate(293.367188 0)"/>
     <use xlink:href="#DejaVuSans-74" transform="translate(352.546875 0)"/>
     <use xlink:href="#DejaVuSans-20" transform="translate(391.755859 0)"/>
     <use xlink:href="#DejaVuSans-57" transform="translate(423.542969 0)"/>
     <use xlink:href="#DejaVuSans-69" transform="translate(520.169922 0)"/>
     <use xlink:href="#DejaVuSans-6e" transform="translate(547.953125 0)"/>
     <use xlink:href="#DejaVuSans-64" transform="translate(611.332031 0)"/>
     <use xlink:href="#DejaVuSans-6f" transform="translate(674.808594 0)"/>
     <use xlink:href="#DejaVuSans-77" transform="translate(735.990234 0)"/>
    </g>
   </g>
  </g>
  <g id="axes_2">
   <g id="patch_8">
    <path d="M 195.633267 376.92 
L 335.213465 376.92 
L 335.213465 49.32 
L 195.633267 49.32 
z
" style="fill: #ffffff"/>
   </g>
   <g id="patch_9">
    <path d="M 227.038812 376.92 
L 303.807921 376.92 
L 303.807921 363.816 
L 227.038812 363.816 
z
" clip-path="url(#p131dc35c91)" style="fill: #4472c4; stroke: #ffffff; stroke-width: 0.5; stroke-linejoin: miter"/>
   </g>
   <g id="patch_10">
    <path d="M 227.038812 363.816 
L 303.807921 363.816 
L 303.807921 357.264 
L 227.038812 357.264 
z
" clip-path="url(#p131dc35c91)" style="fill: #70ad47; stroke: #ffffff; stroke-width: 0.5; stroke-linejoin: miter"/>
   </g>
   <g id="patch_11">
    <path d="M 227.038812 357.264 
L 303.807921 357.264 
L 303.807921 232.776 
L 227.038812 232.776 
z
" clip-path="url(#p131dc35c91)" style="fill: #e05c5c; stroke: #ffffff; stroke-width: 0.5; stroke-linejoin: miter"/>
   </g>
   <g id="patch_12">
    <path d="M 227.038812 232.776 
L 303.807921 232.776 
L 303.807921 49.32 
L 227.038812 49.32 
z
" clip-path="url(#p131dc35c91)" style="fill: #f0f0f0; stroke: #ffffff; stroke-width: 0.5; stroke-linejoin: miter"/>
   </g>
   <g id="patch_13">
    <path d="M 227.038812 376.92 
L 303.807921 376.92 
L 303.807921 49.32 
L 227.038812 49.32 
L 227.038812 376.92 
z
" clip-path="url(#p131dc35c91)" style="fill: none; stroke: #aaaaaa; stroke-width: 1.2; stroke-linejoin: miter"/>
   </g>
   <g id="matplotlib.axis_3"/>
   <g id="matplotlib.axis_4"/>
   <g id="line2d_2">
    <path d="M 227.038812 131.22 
L 303.807921 131.22 
" clip-path="url(#p131dc35c91)" style="fill: none; stroke-dasharray: 5.18,2.24; stroke-dashoffset: 0; stroke: #cc3333; stroke-opacity: 0.85; stroke-width: 1.4"/>
   </g>
   <g id="text_4">
    <!-- Conversation -->
    <g style="fill: #ffffff" transform="translate(238.618554 297.00675) scale(0.072 -0.072)">
     <defs>
      <path id="DejaVuSans-Bold-43" d="M 4288 256 
Q 3956 84 3597 -3 
Q 3238 -91 2847 -91 
Q 1681 -91 1000 561 
Q 319 1213 319 2328 
Q 319 3447 1000 4098 
Q 1681 4750 2847 4750 
Q 3238 4750 3597 4662 
Q 3956 4575 4288 4403 
L 4288 3438 
Q 3953 3666 3628 3772 
Q 3303 3878 2944 3878 
Q 2300 3878 1931 3465 
Q 1563 3053 1563 2328 
Q 1563 1606 1931 1193 
Q 2300 781 2944 781 
Q 3303 781 3628 887 
Q 3953 994 4288 1222 
L 4288 256 
z
" transform="scale(0.015625)"/>
      <path id="DejaVuSans-Bold-6f" d="M 2203 2784 
Q 1831 2784 1636 2517 
Q 1441 2250 1441 1747 
Q 1441 1244 1636 976 
Q 1831 709 2203 709 
Q 2569 709 2762 976 
Q 2956 1244 2956 1747 
Q 2956 2250 2762 2517 
Q 2569 2784 2203 2784 
z
M 2203 3584 
Q 3106 3584 3614 3096 
Q 4122 2609 4122 1747 
Q 4122 884 3614 396 
Q 3106 -91 2203 -91 
Q 1297 -91 786 396 
Q 275 884 275 1747 
Q 275 2609 786 3096 
Q 1297 3584 2203 3584 
z
" transform="scale(0.015625)"/>
      <path id="DejaVuSans-Bold-6e" d="M 4056 2131 
L 4056 0 
L 2931 0 
L 2931 347 
L 2931 1631 
Q 2931 2084 2911 2256 
Q 2891 2428 2841 2509 
Q 2775 2619 2662 2680 
Q 2550 2741 2406 2741 
Q 2056 2741 1856 2470 
Q 1656 2200 1656 1722 
L 1656 0 
L 538 0 
L 538 3500 
L 1656 3500 
L 1656 2988 
Q 1909 3294 2193 3439 
Q 2478 3584 2822 3584 
Q 3428 3584 3742 3212 
Q 4056 2841 4056 2131 
z
" transform="scale(0.015625)"/>
      <path id="DejaVuSans-Bold-76" d="M 97 3500 
L 1216 3500 
L 2088 1081 
L 2956 3500 
L 4078 3500 
L 2700 0 
L 1472 0 
L 97 3500 
z
" transform="scale(0.015625)"/>
      <path id="DejaVuSans-Bold-65" d="M 4031 1759 
L 4031 1441 
L 1416 1441 
Q 1456 1047 1700 850 
Q 1944 653 2381 653 
Q 2734 653 3104 758 
Q 3475 863 3866 1075 
L 3866 213 
Q 3469 63 3072 -14 
Q 2675 -91 2278 -91 
Q 1328 -91 801 392 
Q 275 875 275 1747 
Q 275 2603 792 3093 
Q 1309 3584 2216 3584 
Q 3041 3584 3536 3087 
Q 4031 2591 4031 1759 
z
M 2881 2131 
Q 2881 2450 2695 2645 
Q 2509 2841 2209 2841 
Q 1884 2841 1681 2658 
Q 1478 2475 1428 2131 
L 2881 2131 
z
" transform="scale(0.015625)"/>
      <path id="DejaVuSans-Bold-72" d="M 3138 2547 
Q 2991 2616 2845 2648 
Q 2700 2681 2553 2681 
Q 2122 2681 1889 2404 
Q 1656 2128 1656 1613 
L 1656 0 
L 538 0 
L 538 3500 
L 1656 3500 
L 1656 2925 
Q 1872 3269 2151 3426 
Q 2431 3584 2822 3584 
Q 2878 3584 2943 3579 
Q 3009 3575 3134 3559 
L 3138 2547 
z
" transform="scale(0.015625)"/>
      <path id="DejaVuSans-Bold-73" d="M 3272 3391 
L 3272 2541 
Q 2913 2691 2578 2766 
Q 2244 2841 1947 2841 
Q 1628 2841 1473 2761 
Q 1319 2681 1319 2516 
Q 1319 2381 1436 2309 
Q 1553 2238 1856 2203 
L 2053 2175 
Q 2913 2066 3209 1816 
Q 3506 1566 3506 1031 
Q 3506 472 3093 190 
Q 2681 -91 1863 -91 
Q 1516 -91 1145 -36 
Q 775 19 384 128 
L 384 978 
Q 719 816 1070 734 
Q 1422 653 1784 653 
Q 2113 653 2278 743 
Q 2444 834 2444 1013 
Q 2444 1163 2330 1236 
Q 2216 1309 1875 1350 
L 1678 1375 
Q 931 1469 631 1722 
Q 331 1975 331 2491 
Q 331 3047 712 3315 
Q 1094 3584 1881 3584 
Q 2191 3584 2531 3537 
Q 2872 3491 3272 3391 
z
" transform="scale(0.015625)"/>
      <path id="DejaVuSans-Bold-61" d="M 2106 1575 
Q 1756 1575 1579 1456 
Q 1403 1338 1403 1106 
Q 1403 894 1545 773 
Q 1688 653 1941 653 
Q 2256 653 2472 879 
Q 2688 1106 2688 1447 
L 2688 1575 
L 2106 1575 
z
M 3816 1997 
L 3816 0 
L 2688 0 
L 2688 519 
Q 2463 200 2181 54 
Q 1900 -91 1497 -91 
Q 953 -91 614 226 
Q 275 544 275 1050 
Q 275 1666 698 1953 
Q 1122 2241 2028 2241 
L 2688 2241 
L 2688 2328 
Q 2688 2594 2478 2717 
Q 2269 2841 1825 2841 
Q 1466 2841 1156 2769 
Q 847 2697 581 2553 
L 581 3406 
Q 941 3494 1303 3539 
Q 1666 3584 2028 3584 
Q 2975 3584 3395 3211 
Q 3816 2838 3816 1997 
z
" transform="scale(0.015625)"/>
      <path id="DejaVuSans-Bold-74" d="M 1759 4494 
L 1759 3500 
L 2913 3500 
L 2913 2700 
L 1759 2700 
L 1759 1216 
Q 1759 972 1856 886 
Q 1953 800 2241 800 
L 2816 800 
L 2816 0 
L 1856 0 
Q 1194 0 917 276 
Q 641 553 641 1216 
L 641 2700 
L 84 2700 
L 84 3500 
L 641 3500 
L 641 4494 
L 1759 4494 
z
" transform="scale(0.015625)"/>
      <path id="DejaVuSans-Bold-69" d="M 538 3500 
L 1656 3500 
L 1656 0 
L 538 0 
L 538 3500 
z
M 538 4863 
L 1656 4863 
L 1656 3950 
L 538 3950 
L 538 4863 
z
" transform="scale(0.015625)"/>
     </defs>
     <use xlink:href="#DejaVuSans-Bold-43"/>
     <use xlink:href="#DejaVuSans-Bold-6f" transform="translate(73.388672 0)"/>
     <use xlink:href="#DejaVuSans-Bold-6e" transform="translate(142.089844 0)"/>
     <use xlink:href="#DejaVuSans-Bold-76" transform="translate(213.28125 0)"/>
     <use xlink:href="#DejaVuSans-Bold-65" transform="translate(278.466797 0)"/>
     <use xlink:href="#DejaVuSans-Bold-72" transform="translate(346.289062 0)"/>
     <use xlink:href="#DejaVuSans-Bold-73" transform="translate(395.605469 0)"/>
     <use xlink:href="#DejaVuSans-Bold-61" transform="translate(455.126953 0)"/>
     <use xlink:href="#DejaVuSans-Bold-74" transform="translate(522.607422 0)"/>
     <use xlink:href="#DejaVuSans-Bold-69" transform="translate(570.410156 0)"/>
     <use xlink:href="#DejaVuSans-Bold-6f" transform="translate(604.6875 0)"/>
     <use xlink:href="#DejaVuSans-Bold-6e" transform="translate(673.388672 0)"/>
    </g>
   </g>
   <g id="text_5">
    <!-- Free Space -->
    <g style="fill: #666666" transform="translate(245.668929 143.03475) scale(0.072 -0.072)">
     <use xlink:href="#DejaVuSans-46"/>
     <use xlink:href="#DejaVuSans-72" transform="translate(50.269531 0)"/>
     <use xlink:href="#DejaVuSans-65" transform="translate(89.132812 0)"/>
     <use xlink:href="#DejaVuSans-65" transform="translate(150.65625 0)"/>
     <use xlink:href="#DejaVuSans-20" transform="translate(212.179688 0)"/>
     <use xlink:href="#DejaVuSans-53" transform="translate(243.966797 0)"/>
     <use xlink:href="#DejaVuSans-70" transform="translate(307.443359 0)"/>
     <use xlink:href="#DejaVuSans-61" transform="translate(370.919922 0)"/>
     <use xlink:href="#DejaVuSans-63" transform="translate(432.199219 0)"/>
     <use xlink:href="#DejaVuSans-65" transform="translate(487.179688 0)"/>
    </g>
   </g>
   <g id="text_6">
    <!-- Stage 2 -->
    <g style="fill: #333333" transform="translate(249.086765 406.310672) scale(0.085 -0.085)">
     <defs>
      <path id="DejaVuSans-32" d="M 1228 531 
L 3431 531 
L 3431 0 
L 469 0 
L 469 531 
Q 828 903 1448 1529 
Q 2069 2156 2228 2338 
Q 2531 2678 2651 2914 
Q 2772 3150 2772 3378 
Q 2772 3750 2511 3984 
Q 2250 4219 1831 4219 
Q 1534 4219 1204 4116 
Q 875 4013 500 3803 
L 500 4441 
Q 881 4594 1212 4672 
Q 1544 4750 1819 4750 
Q 2544 4750 2975 4387 
Q 3406 4025 3406 3419 
Q 3406 3131 3298 2873 
Q 3191 2616 2906 2266 
Q 2828 2175 2409 1742 
Q 1991 1309 1228 531 
z
" transform="scale(0.015625)"/>
     </defs>
     <use xlink:href="#DejaVuSans-53"/>
     <use xlink:href="#DejaVuSans-74" transform="translate(63.476562 0)"/>
     <use xlink:href="#DejaVuSans-61" transform="translate(102.685547 0)"/>
     <use xlink:href="#DejaVuSans-67" transform="translate(163.964844 0)"/>
     <use xlink:href="#DejaVuSans-65" transform="translate(227.441406 0)"/>
     <use xlink:href="#DejaVuSans-20" transform="translate(288.964844 0)"/>
     <use xlink:href="#DejaVuSans-32" transform="translate(320.751953 0)"/>
    </g>
    <!-- Working -->
    <g style="fill: #333333" transform="translate(248.090007 417.120547) scale(0.085 -0.085)">
     <defs>
      <path id="DejaVuSans-6b" d="M 581 4863 
L 1159 4863 
L 1159 1991 
L 2875 3500 
L 3609 3500 
L 1753 1863 
L 3688 0 
L 2938 0 
L 1159 1709 
L 1159 0 
L 581 0 
L 581 4863 
z
" transform="scale(0.015625)"/>
     </defs>
     <use xlink:href="#DejaVuSans-57"/>
     <use xlink:href="#DejaVuSans-6f" transform="translate(93.001953 0)"/>
     <use xlink:href="#DejaVuSans-72" transform="translate(154.183594 0)"/>
     <use xlink:href="#DejaVuSans-6b" transform="translate(195.296875 0)"/>
     <use xlink:href="#DejaVuSans-69" transform="translate(253.207031 0)"/>
     <use xlink:href="#DejaVuSans-6e" transform="translate(280.990234 0)"/>
     <use xlink:href="#DejaVuSans-67" transform="translate(344.369141 0)"/>
    </g>
   </g>
   <g id="text_7">
    <!-- Context Window -->
    <g style="fill: #555555" transform="translate(234.756569 37.932234) scale(0.075 -0.075)">
     <use xlink:href="#DejaVuSans-43"/>
     <use xlink:href="#DejaVuSans-6f" transform="translate(69.824219 0)"/>
     <use xlink:href="#DejaVuSans-6e" transform="translate(131.005859 0)"/>
     <use xlink:href="#DejaVuSans-74" transform="translate(194.384766 0)"/>
     <use xlink:href="#DejaVuSans-65" transform="translate(233.59375 0)"/>
     <use xlink:href="#DejaVuSans-78" transform="translate(293.367188 0)"/>
     <use xlink:href="#DejaVuSans-74" transform="translate(352.546875 0)"/>
     <use xlink:href="#DejaVuSans-20" transform="translate(391.755859 0)"/>
     <use xlink:href="#DejaVuSans-57" transform="translate(423.542969 0)"/>
     <use xlink:href="#DejaVuSans-69" transform="translate(520.169922 0)"/>
     <use xlink:href="#DejaVuSans-6e" transform="translate(547.953125 0)"/>
     <use xlink:href="#DejaVuSans-64" transform="translate(611.332031 0)"/>
     <use xlink:href="#DejaVuSans-6f" transform="translate(674.808594 0)"/>
     <use xlink:href="#DejaVuSans-77" transform="translate(735.990234 0)"/>
    </g>
   </g>
  </g>
  <g id="axes_3">
   <g id="patch_14">
    <path d="M 384.066535 376.92 
L 523.646733 376.92 
L 523.646733 49.32 
L 384.066535 49.32 
z
" style="fill: #ffffff"/>
   </g>
   <g id="patch_15">
    <path d="M 415.472079 376.92 
L 492.241188 376.92 
L 492.241188 363.816 
L 415.472079 363.816 
z
" clip-path="url(#p0200bb03e5)" style="fill: #4472c4; stroke: #ffffff; stroke-width: 0.5; stroke-linejoin: miter"/>
   </g>
   <g id="patch_16">
    <path d="M 415.472079 363.816 
L 492.241188 363.816 
L 492.241188 357.264 
L 415.472079 357.264 
z
" clip-path="url(#p0200bb03e5)" style="fill: #70ad47; stroke: #ffffff; stroke-width: 0.5; stroke-linejoin: miter"/>
   </g>
   <g id="patch_17">
    <path d="M 415.472079 357.264 
L 492.241188 357.264 
L 492.241188 134.496 
L 415.472079 134.496 
z
" clip-path="url(#p0200bb03e5)" style="fill: #e05c5c; stroke: #ffffff; stroke-width: 0.5; stroke-linejoin: miter"/>
   </g>
   <g id="patch_18">
    <path d="M 415.472079 134.496 
L 492.241188 134.496 
L 492.241188 49.32 
L 415.472079 49.32 
z
" clip-path="url(#p0200bb03e5)" style="fill: #f0f0f0; stroke: #ffffff; stroke-width: 0.5; stroke-linejoin: miter"/>
   </g>
   <g id="patch_19">
    <path d="M 415.472079 376.92 
L 492.241188 376.92 
L 492.241188 49.32 
L 415.472079 49.32 
L 415.472079 376.92 
z
" clip-path="url(#p0200bb03e5)" style="fill: none; stroke: #aaaaaa; stroke-width: 1.2; stroke-linejoin: miter"/>
   </g>
   <g id="matplotlib.axis_5"/>
   <g id="matplotlib.axis_6"/>
   <g id="line2d_3">
    <path d="M 415.472079 131.22 
L 492.241188 131.22 
" clip-path="url(#p0200bb03e5)" style="fill: none; stroke-dasharray: 5.18,2.24; stroke-dashoffset: 0; stroke: #cc3333; stroke-opacity: 0.85; stroke-width: 1.4"/>
   </g>
   <g id="text_8">
    <!-- Conversation -->
    <g style="fill: #ffffff" transform="translate(427.051821 247.86675) scale(0.072 -0.072)">
     <use xlink:href="#DejaVuSans-Bold-43"/>
     <use xlink:href="#DejaVuSans-Bold-6f" transform="translate(73.388672 0)"/>
     <use xlink:href="#DejaVuSans-Bold-6e" transform="translate(142.089844 0)"/>
     <use xlink:href="#DejaVuSans-Bold-76" transform="translate(213.28125 0)"/>
     <use xlink:href="#DejaVuSans-Bold-65" transform="translate(278.466797 0)"/>
     <use xlink:href="#DejaVuSans-Bold-72" transform="translate(346.289062 0)"/>
     <use xlink:href="#DejaVuSans-Bold-73" transform="translate(395.605469 0)"/>
     <use xlink:href="#DejaVuSans-Bold-61" transform="translate(455.126953 0)"/>
     <use xlink:href="#DejaVuSans-Bold-74" transform="translate(522.607422 0)"/>
     <use xlink:href="#DejaVuSans-Bold-69" transform="translate(570.410156 0)"/>
     <use xlink:href="#DejaVuSans-Bold-6f" transform="translate(604.6875 0)"/>
     <use xlink:href="#DejaVuSans-Bold-6e" transform="translate(673.388672 0)"/>
    </g>
   </g>
   <g id="text_9">
    <!-- Free Space -->
    <g style="fill: #666666" transform="translate(434.102196 93.89475) scale(0.072 -0.072)">
     <use xlink:href="#DejaVuSans-46"/>
     <use xlink:href="#DejaVuSans-72" transform="translate(50.269531 0)"/>
     <use xlink:href="#DejaVuSans-65" transform="translate(89.132812 0)"/>
     <use xlink:href="#DejaVuSans-65" transform="translate(150.65625 0)"/>
     <use xlink:href="#DejaVuSans-20" transform="translate(212.179688 0)"/>
     <use xlink:href="#DejaVuSans-53" transform="translate(243.966797 0)"/>
     <use xlink:href="#DejaVuSans-70" transform="translate(307.443359 0)"/>
     <use xlink:href="#DejaVuSans-61" transform="translate(370.919922 0)"/>
     <use xlink:href="#DejaVuSans-63" transform="translate(432.199219 0)"/>
     <use xlink:href="#DejaVuSans-65" transform="translate(487.179688 0)"/>
    </g>
   </g>
   <g id="text_10">
    <!-- Context Rot -->
    <g style="fill: #cc3333" transform="translate(499.326212 129.232328) scale(0.07 -0.07)">
     <defs>
      <path id="DejaVuSans-Oblique-43" d="M 4447 4306 
L 4319 3641 
Q 4019 3944 3683 4091 
Q 3347 4238 2956 4238 
Q 2422 4238 2017 3981 
Q 1613 3725 1319 3200 
Q 1131 2863 1032 2486 
Q 934 2109 934 1728 
Q 934 1091 1264 756 
Q 1594 422 2222 422 
Q 2656 422 3056 561 
Q 3456 700 3834 978 
L 3688 231 
Q 3316 72 2936 -9 
Q 2556 -91 2175 -91 
Q 1278 -91 773 396 
Q 269 884 269 1753 
Q 269 2309 461 2846 
Q 653 3384 1013 3828 
Q 1394 4300 1883 4525 
Q 2372 4750 3022 4750 
Q 3422 4750 3780 4639 
Q 4138 4528 4447 4306 
z
" transform="scale(0.015625)"/>
      <path id="DejaVuSans-Oblique-6f" d="M 1625 -91 
Q 1009 -91 651 289 
Q 294 669 294 1325 
Q 294 1706 417 2101 
Q 541 2497 738 2766 
Q 1047 3184 1428 3384 
Q 1809 3584 2291 3584 
Q 2888 3584 3255 3212 
Q 3622 2841 3622 2241 
Q 3622 1825 3500 1412 
Q 3378 1000 3181 728 
Q 2875 309 2494 109 
Q 2113 -91 1625 -91 
z
M 891 1344 
Q 891 869 1089 633 
Q 1288 397 1691 397 
Q 2269 397 2648 901 
Q 3028 1406 3028 2181 
Q 3028 2634 2825 2865 
Q 2622 3097 2228 3097 
Q 1903 3097 1650 2945 
Q 1397 2794 1197 2484 
Q 1050 2253 970 1956 
Q 891 1659 891 1344 
z
" transform="scale(0.015625)"/>
      <path id="DejaVuSans-Oblique-6e" d="M 3566 2113 
L 3156 0 
L 2578 0 
L 2988 2091 
Q 3016 2238 3031 2350 
Q 3047 2463 3047 2528 
Q 3047 2791 2881 2937 
Q 2716 3084 2419 3084 
Q 1956 3084 1622 2776 
Q 1288 2469 1184 1941 
L 800 0 
L 225 0 
L 903 3500 
L 1478 3500 
L 1363 2950 
Q 1603 3253 1940 3418 
Q 2278 3584 2650 3584 
Q 3113 3584 3367 3334 
Q 3622 3084 3622 2631 
Q 3622 2519 3608 2391 
Q 3594 2263 3566 2113 
z
" transform="scale(0.015625)"/>
      <path id="DejaVuSans-Oblique-74" d="M 2706 3500 
L 2619 3053 
L 1472 3053 
L 1100 1153 
Q 1081 1047 1072 975 
Q 1063 903 1063 863 
Q 1063 663 1183 572 
Q 1303 481 1569 481 
L 2150 481 
L 2053 0 
L 1503 0 
Q 991 0 739 200 
Q 488 400 488 806 
Q 488 878 497 964 
Q 506 1050 525 1153 
L 897 3053 
L 409 3053 
L 500 3500 
L 978 3500 
L 1172 4494 
L 1747 4494 
L 1556 3500 
L 2706 3500 
z
" transform="scale(0.015625)"/>
      <path id="DejaVuSans-Oblique-65" d="M 3078 2063 
Q 3088 2113 3092 2166 
Q 3097 2219 3097 2272 
Q 3097 2653 2873 2875 
Q 2650 3097 2266 3097 
Q 1838 3097 1509 2826 
Q 1181 2556 1013 2059 
L 3078 2063 
z
M 3578 1613 
L 903 1613 
Q 884 1494 878 1425 
Q 872 1356 872 1306 
Q 872 872 1139 634 
Q 1406 397 1894 397 
Q 2269 397 2603 481 
Q 2938 566 3225 728 
L 3116 159 
Q 2806 34 2476 -28 
Q 2147 -91 1806 -91 
Q 1078 -91 686 257 
Q 294 606 294 1247 
Q 294 1794 489 2264 
Q 684 2734 1063 3103 
Q 1306 3334 1642 3459 
Q 1978 3584 2356 3584 
Q 2950 3584 3301 3228 
Q 3653 2872 3653 2272 
Q 3653 2128 3634 1964 
Q 3616 1800 3578 1613 
z
" transform="scale(0.015625)"/>
      <path id="DejaVuSans-Oblique-78" d="M 3841 3500 
L 2234 1784 
L 3219 0 
L 2559 0 
L 1819 1388 
L 531 0 
L -166 0 
L 1556 1844 
L 641 3500 
L 1300 3500 
L 1972 2234 
L 3144 3500 
L 3841 3500 
z
" transform="scale(0.015625)"/>
      <path id="DejaVuSans-Oblique-20" transform="scale(0.015625)"/>
      <path id="DejaVuSans-Oblique-52" d="M 1613 4147 
L 1294 2491 
L 2106 2491 
Q 2584 2491 2879 2755 
Q 3175 3019 3175 3444 
Q 3175 3784 2976 3965 
Q 2778 4147 2406 4147 
L 1613 4147 
z
M 2772 2241 
Q 2972 2194 3105 2009 
Q 3238 1825 3413 1275 
L 3809 0 
L 3144 0 
L 2778 1197 
Q 2638 1659 2453 1815 
Q 2269 1972 1888 1972 
L 1191 1972 
L 806 0 
L 172 0 
L 1081 4666 
L 2503 4666 
Q 3150 4666 3495 4373 
Q 3841 4081 3841 3531 
Q 3841 3044 3547 2687 
Q 3253 2331 2772 2241 
z
" transform="scale(0.015625)"/>
     </defs>
     <use xlink:href="#DejaVuSans-Oblique-43"/>
     <use xlink:href="#DejaVuSans-Oblique-6f" transform="translate(69.824219 0)"/>
     <use xlink:href="#DejaVuSans-Oblique-6e" transform="translate(131.005859 0)"/>
     <use xlink:href="#DejaVuSans-Oblique-74" transform="translate(194.384766 0)"/>
     <use xlink:href="#DejaVuSans-Oblique-65" transform="translate(233.59375 0)"/>
     <use xlink:href="#DejaVuSans-Oblique-78" transform="translate(295.117188 0)"/>
     <use xlink:href="#DejaVuSans-Oblique-74" transform="translate(354.296875 0)"/>
     <use xlink:href="#DejaVuSans-Oblique-20" transform="translate(393.505859 0)"/>
     <use xlink:href="#DejaVuSans-Oblique-52" transform="translate(425.292969 0)"/>
     <use xlink:href="#DejaVuSans-Oblique-6f" transform="translate(494.775391 0)"/>
     <use xlink:href="#DejaVuSans-Oblique-74" transform="translate(555.957031 0)"/>
    </g>
    <!-- Zone -->
    <g style="fill: #cc3333" transform="translate(511.246446 137.070797) scale(0.07 -0.07)">
     <defs>
      <path id="DejaVuSans-Oblique-5a" d="M 838 4666 
L 4500 4666 
L 4409 4184 
L 794 531 
L 3769 531 
L 3669 0 
L -141 0 
L -50 481 
L 3566 4134 
L 738 4134 
L 838 4666 
z
" transform="scale(0.015625)"/>
     </defs>
     <use xlink:href="#DejaVuSans-Oblique-5a"/>
     <use xlink:href="#DejaVuSans-Oblique-6f" transform="translate(68.505859 0)"/>
     <use xlink:href="#DejaVuSans-Oblique-6e" transform="translate(129.6875 0)"/>
     <use xlink:href="#DejaVuSans-Oblique-65" transform="translate(193.066406 0)"/>
    </g>
   </g>
   <g id="text_11">
    <!-- Stage 3 -->
    <g style="fill: #333333" transform="translate(437.520032 406.310672) scale(0.085 -0.085)">
     <defs>
      <path id="DejaVuSans-33" d="M 2597 2516 
Q 3050 2419 3304 2112 
Q 3559 1806 3559 1356 
Q 3559 666 3084 287 
Q 2609 -91 1734 -91 
Q 1441 -91 1130 -33 
Q 819 25 488 141 
L 488 750 
Q 750 597 1062 519 
Q 1375 441 1716 441 
Q 2309 441 2620 675 
Q 2931 909 2931 1356 
Q 2931 1769 2642 2001 
Q 2353 2234 1838 2234 
L 1294 2234 
L 1294 2753 
L 1863 2753 
Q 2328 2753 2575 2939 
Q 2822 3125 2822 3475 
Q 2822 3834 2567 4026 
Q 2313 4219 1838 4219 
Q 1578 4219 1281 4162 
Q 984 4106 628 3988 
L 628 4550 
Q 988 4650 1302 4700 
Q 1616 4750 1894 4750 
Q 2613 4750 3031 4423 
Q 3450 4097 3450 3541 
Q 3450 3153 3228 2886 
Q 3006 2619 2597 2516 
z
" transform="scale(0.015625)"/>
     </defs>
     <use xlink:href="#DejaVuSans-53"/>
     <use xlink:href="#DejaVuSans-74" transform="translate(63.476562 0)"/>
     <use xlink:href="#DejaVuSans-61" transform="translate(102.685547 0)"/>
     <use xlink:href="#DejaVuSans-67" transform="translate(163.964844 0)"/>
     <use xlink:href="#DejaVuSans-65" transform="translate(227.441406 0)"/>
     <use xlink:href="#DejaVuSans-20" transform="translate(288.964844 0)"/>
     <use xlink:href="#DejaVuSans-33" transform="translate(320.751953 0)"/>
    </g>
    <!-- Approaching -->
    <g style="fill: #333333" transform="translate(427.094251 417.120547) scale(0.085 -0.085)">
     <defs>
      <path id="DejaVuSans-41" d="M 2188 4044 
L 1331 1722 
L 3047 1722 
L 2188 4044 
z
M 1831 4666 
L 2547 4666 
L 4325 0 
L 3669 0 
L 3244 1197 
L 1141 1197 
L 716 0 
L 50 0 
L 1831 4666 
z
" transform="scale(0.015625)"/>
      <path id="DejaVuSans-68" d="M 3513 2113 
L 3513 0 
L 2938 0 
L 2938 2094 
Q 2938 2591 2744 2837 
Q 2550 3084 2163 3084 
Q 1697 3084 1428 2787 
Q 1159 2491 1159 1978 
L 1159 0 
L 581 0 
L 581 4863 
L 1159 4863 
L 1159 2956 
Q 1366 3272 1645 3428 
Q 1925 3584 2291 3584 
Q 2894 3584 3203 3211 
Q 3513 2838 3513 2113 
z
" transform="scale(0.015625)"/>
     </defs>
     <use xlink:href="#DejaVuSans-41"/>
     <use xlink:href="#DejaVuSans-70" transform="translate(68.408203 0)"/>
     <use xlink:href="#DejaVuSans-70" transform="translate(131.884766 0)"/>
     <use xlink:href="#DejaVuSans-72" transform="translate(195.361328 0)"/>
     <use xlink:href="#DejaVuSans-6f" transform="translate(234.224609 0)"/>
     <use xlink:href="#DejaVuSans-61" transform="translate(295.40625 0)"/>
     <use xlink:href="#DejaVuSans-63" transform="translate(356.685547 0)"/>
     <use xlink:href="#DejaVuSans-68" transform="translate(411.666016 0)"/>
     <use xlink:href="#DejaVuSans-69" transform="translate(475.044922 0)"/>
     <use xlink:href="#DejaVuSans-6e" transform="translate(502.828125 0)"/>
     <use xlink:href="#DejaVuSans-67" transform="translate(566.207031 0)"/>
    </g>
    <!-- Context Rot Zone -->
    <g style="fill: #333333" transform="translate(416.656516 427.930422) scale(0.085 -0.085)">
     <defs>
      <path id="DejaVuSans-52" d="M 2841 2188 
Q 3044 2119 3236 1894 
Q 3428 1669 3622 1275 
L 4263 0 
L 3584 0 
L 2988 1197 
Q 2756 1666 2539 1819 
Q 2322 1972 1947 1972 
L 1259 1972 
L 1259 0 
L 628 0 
L 628 4666 
L 2053 4666 
Q 2853 4666 3247 4331 
Q 3641 3997 3641 3322 
Q 3641 2881 3436 2590 
Q 3231 2300 2841 2188 
z
M 1259 4147 
L 1259 2491 
L 2053 2491 
Q 2509 2491 2742 2702 
Q 2975 2913 2975 3322 
Q 2975 3731 2742 3939 
Q 2509 4147 2053 4147 
L 1259 4147 
z
" transform="scale(0.015625)"/>
      <path id="DejaVuSans-5a" d="M 359 4666 
L 4025 4666 
L 4025 4184 
L 1075 531 
L 4097 531 
L 4097 0 
L 288 0 
L 288 481 
L 3238 4134 
L 359 4134 
L 359 4666 
z
" transform="scale(0.015625)"/>
     </defs>
     <use xlink:href="#DejaVuSans-43"/>
     <use xlink:href="#DejaVuSans-6f" transform="translate(69.824219 0)"/>
     <use xlink:href="#DejaVuSans-6e" transform="translate(131.005859 0)"/>
     <use xlink:href="#DejaVuSans-74" transform="translate(194.384766 0)"/>
     <use xlink:href="#DejaVuSans-65" transform="translate(233.59375 0)"/>
     <use xlink:href="#DejaVuSans-78" transform="translate(293.367188 0)"/>
     <use xlink:href="#DejaVuSans-74" transform="translate(352.546875 0)"/>
     <use xlink:href="#DejaVuSans-20" transform="translate(391.755859 0)"/>
     <use xlink:href="#DejaVuSans-52" transform="translate(423.542969 0)"/>
     <use xlink:href="#DejaVuSans-6f" transform="translate(488.525391 0)"/>
     <use xlink:href="#DejaVuSans-74" transform="translate(549.707031 0)"/>
     <use xlink:href="#DejaVuSans-20" transform="translate(588.916016 0)"/>
     <use xlink:href="#DejaVuSans-5a" transform="translate(620.703125 0)"/>
     <use xlink:href="#DejaVuSans-6f" transform="translate(689.208984 0)"/>
     <use xlink:href="#DejaVuSans-6e" transform="translate(750.390625 0)"/>
     <use xlink:href="#DejaVuSans-65" transform="translate(813.769531 0)"/>
    </g>
   </g>
   <g id="text_12">
    <!-- Context Window -->
    <g style="fill: #555555" transform="translate(423.189837 37.932234) scale(0.075 -0.075)">
     <use xlink:href="#DejaVuSans-43"/>
     <use xlink:href="#DejaVuSans-6f" transform="translate(69.824219 0)"/>
     <use xlink:href="#DejaVuSans-6e" transform="translate(131.005859 0)"/>
     <use xlink:href="#DejaVuSans-74" transform="translate(194.384766 0)"/>
     <use xlink:href="#DejaVuSans-65" transform="translate(233.59375 0)"/>
     <use xlink:href="#DejaVuSans-78" transform="translate(293.367188 0)"/>
     <use xlink:href="#DejaVuSans-74" transform="translate(352.546875 0)"/>
     <use xlink:href="#DejaVuSans-20" transform="translate(391.755859 0)"/>
     <use xlink:href="#DejaVuSans-57" transform="translate(423.542969 0)"/>
     <use xlink:href="#DejaVuSans-69" transform="translate(520.169922 0)"/>
     <use xlink:href="#DejaVuSans-6e" transform="translate(547.953125 0)"/>
     <use xlink:href="#DejaVuSans-64" transform="translate(611.332031 0)"/>
     <use xlink:href="#DejaVuSans-6f" transform="translate(674.808594 0)"/>
     <use xlink:href="#DejaVuSans-77" transform="translate(735.990234 0)"/>
    </g>
   </g>
  </g>
  <g id="axes_4">
   <g id="patch_20">
    <path d="M 572.499802 376.92 
L 712.08 376.92 
L 712.08 49.32 
L 572.499802 49.32 
z
" style="fill: #ffffff"/>
   </g>
   <g id="patch_21">
    <path d="M 603.905347 376.92 
L 680.674455 376.92 
L 680.674455 363.816 
L 603.905347 363.816 
z
" clip-path="url(#p655fc715f9)" style="fill: #4472c4; stroke: #ffffff; stroke-width: 0.5; stroke-linejoin: miter"/>
   </g>
   <g id="patch_22">
    <path d="M 603.905347 363.816 
L 680.674455 363.816 
L 680.674455 357.264 
L 603.905347 357.264 
z
" clip-path="url(#p655fc715f9)" style="fill: #70ad47; stroke: #ffffff; stroke-width: 0.5; stroke-linejoin: miter"/>
   </g>
   <g id="patch_23">
    <path d="M 603.905347 357.264 
L 680.674455 357.264 
L 680.674455 324.504 
L 603.905347 324.504 
z
" clip-path="url(#p655fc715f9)" style="fill: #9b59b6; stroke: #ffffff; stroke-width: 0.5; stroke-linejoin: miter"/>
   </g>
   <g id="patch_24">
    <path d="M 603.905347 324.504 
L 680.674455 324.504 
L 680.674455 49.32 
L 603.905347 49.32 
z
" clip-path="url(#p655fc715f9)" style="fill: #f0f0f0; stroke: #ffffff; stroke-width: 0.5; stroke-linejoin: miter"/>
   </g>
   <g id="patch_25">
    <path d="M 603.905347 376.92 
L 680.674455 376.92 
L 680.674455 49.32 
L 603.905347 49.32 
L 603.905347 376.92 
z
" clip-path="url(#p655fc715f9)" style="fill: none; stroke: #aaaaaa; stroke-width: 1.2; stroke-linejoin: miter"/>
   </g>
   <g id="matplotlib.axis_7"/>
   <g id="matplotlib.axis_8"/>
   <g id="line2d_4">
    <path d="M 603.905347 131.22 
L 680.674455 131.22 
" clip-path="url(#p655fc715f9)" style="fill: none; stroke-dasharray: 5.18,2.24; stroke-dashoffset: 0; stroke: #cc3333; stroke-opacity: 0.85; stroke-width: 1.4"/>
   </g>
   <g id="text_13">
    <!-- Summary -->
    <g style="fill: #ffffff" transform="translate(623.080526 342.8145) scale(0.072 -0.072)">
     <defs>
      <path id="DejaVuSans-Bold-53" d="M 3834 4519 
L 3834 3531 
Q 3450 3703 3084 3790 
Q 2719 3878 2394 3878 
Q 1963 3878 1756 3759 
Q 1550 3641 1550 3391 
Q 1550 3203 1689 3098 
Q 1828 2994 2194 2919 
L 2706 2816 
Q 3484 2659 3812 2340 
Q 4141 2022 4141 1434 
Q 4141 663 3683 286 
Q 3225 -91 2284 -91 
Q 1841 -91 1394 -6 
Q 947 78 500 244 
L 500 1259 
Q 947 1022 1364 901 
Q 1781 781 2169 781 
Q 2563 781 2772 912 
Q 2981 1044 2981 1288 
Q 2981 1506 2839 1625 
Q 2697 1744 2272 1838 
L 1806 1941 
Q 1106 2091 782 2419 
Q 459 2747 459 3303 
Q 459 4000 909 4375 
Q 1359 4750 2203 4750 
Q 2588 4750 2994 4692 
Q 3400 4634 3834 4519 
z
" transform="scale(0.015625)"/>
      <path id="DejaVuSans-Bold-75" d="M 500 1363 
L 500 3500 
L 1625 3500 
L 1625 3150 
Q 1625 2866 1622 2436 
Q 1619 2006 1619 1863 
Q 1619 1441 1641 1255 
Q 1663 1069 1716 984 
Q 1784 875 1895 815 
Q 2006 756 2150 756 
Q 2500 756 2700 1025 
Q 2900 1294 2900 1772 
L 2900 3500 
L 4019 3500 
L 4019 0 
L 2900 0 
L 2900 506 
Q 2647 200 2364 54 
Q 2081 -91 1741 -91 
Q 1134 -91 817 281 
Q 500 653 500 1363 
z
" transform="scale(0.015625)"/>
      <path id="DejaVuSans-Bold-6d" d="M 3781 2919 
Q 3994 3244 4286 3414 
Q 4578 3584 4928 3584 
Q 5531 3584 5847 3212 
Q 6163 2841 6163 2131 
L 6163 0 
L 5038 0 
L 5038 1825 
Q 5041 1866 5042 1909 
Q 5044 1953 5044 2034 
Q 5044 2406 4934 2573 
Q 4825 2741 4581 2741 
Q 4263 2741 4089 2478 
Q 3916 2216 3909 1719 
L 3909 0 
L 2784 0 
L 2784 1825 
Q 2784 2406 2684 2573 
Q 2584 2741 2328 2741 
Q 2006 2741 1831 2477 
Q 1656 2213 1656 1722 
L 1656 0 
L 531 0 
L 531 3500 
L 1656 3500 
L 1656 2988 
Q 1863 3284 2130 3434 
Q 2397 3584 2719 3584 
Q 3081 3584 3359 3409 
Q 3638 3234 3781 2919 
z
" transform="scale(0.015625)"/>
      <path id="DejaVuSans-Bold-79" d="M 78 3500 
L 1197 3500 
L 2138 1125 
L 2938 3500 
L 4056 3500 
L 2584 -331 
Q 2363 -916 2067 -1148 
Q 1772 -1381 1288 -1381 
L 641 -1381 
L 641 -647 
L 991 -647 
Q 1275 -647 1404 -556 
Q 1534 -466 1606 -231 
L 1638 -134 
L 78 3500 
z
" transform="scale(0.015625)"/>
     </defs>
     <use xlink:href="#DejaVuSans-Bold-53"/>
     <use xlink:href="#DejaVuSans-Bold-75" transform="translate(72.021484 0)"/>
     <use xlink:href="#DejaVuSans-Bold-6d" transform="translate(143.212891 0)"/>
     <use xlink:href="#DejaVuSans-Bold-6d" transform="translate(247.412109 0)"/>
     <use xlink:href="#DejaVuSans-Bold-61" transform="translate(351.611328 0)"/>
     <use xlink:href="#DejaVuSans-Bold-72" transform="translate(419.091797 0)"/>
     <use xlink:href="#DejaVuSans-Bold-79" transform="translate(468.408203 0)"/>
    </g>
   </g>
   <g id="text_14">
    <!-- Free Space -->
    <g style="fill: #666666" transform="translate(622.535463 188.89875) scale(0.072 -0.072)">
     <use xlink:href="#DejaVuSans-46"/>
     <use xlink:href="#DejaVuSans-72" transform="translate(50.269531 0)"/>
     <use xlink:href="#DejaVuSans-65" transform="translate(89.132812 0)"/>
     <use xlink:href="#DejaVuSans-65" transform="translate(150.65625 0)"/>
     <use xlink:href="#DejaVuSans-20" transform="translate(212.179688 0)"/>
     <use xlink:href="#DejaVuSans-53" transform="translate(243.966797 0)"/>
     <use xlink:href="#DejaVuSans-70" transform="translate(307.443359 0)"/>
     <use xlink:href="#DejaVuSans-61" transform="translate(370.919922 0)"/>
     <use xlink:href="#DejaVuSans-63" transform="translate(432.199219 0)"/>
     <use xlink:href="#DejaVuSans-65" transform="translate(487.179688 0)"/>
    </g>
   </g>
   <g id="text_15">
    <!-- Stage 4 -->
    <g style="fill: #333333" transform="translate(625.953299 406.310672) scale(0.085 -0.085)">
     <defs>
      <path id="DejaVuSans-34" d="M 2419 4116 
L 825 1625 
L 2419 1625 
L 2419 4116 
z
M 2253 4666 
L 3047 4666 
L 3047 1625 
L 3713 1625 
L 3713 1100 
L 3047 1100 
L 3047 0 
L 2419 0 
L 2419 1100 
L 313 1100 
L 313 1709 
L 2253 4666 
z
" transform="scale(0.015625)"/>
     </defs>
     <use xlink:href="#DejaVuSans-53"/>
     <use xlink:href="#DejaVuSans-74" transform="translate(63.476562 0)"/>
     <use xlink:href="#DejaVuSans-61" transform="translate(102.685547 0)"/>
     <use xlink:href="#DejaVuSans-67" transform="translate(163.964844 0)"/>
     <use xlink:href="#DejaVuSans-65" transform="translate(227.441406 0)"/>
     <use xlink:href="#DejaVuSans-20" transform="translate(288.964844 0)"/>
     <use xlink:href="#DejaVuSans-34" transform="translate(320.751953 0)"/>
    </g>
    <!-- After Compacting -->
    <g style="fill: #333333" transform="translate(605.150213 417.120547) scale(0.085 -0.085)">
     <defs>
      <path id="DejaVuSans-66" d="M 2375 4863 
L 2375 4384 
L 1825 4384 
Q 1516 4384 1395 4259 
Q 1275 4134 1275 3809 
L 1275 3500 
L 2222 3500 
L 2222 3053 
L 1275 3053 
L 1275 0 
L 697 0 
L 697 3053 
L 147 3053 
L 147 3500 
L 697 3500 
L 697 3744 
Q 697 4328 969 4595 
Q 1241 4863 1831 4863 
L 2375 4863 
z
" transform="scale(0.015625)"/>
      <path id="DejaVuSans-6d" d="M 3328 2828 
Q 3544 3216 3844 3400 
Q 4144 3584 4550 3584 
Q 5097 3584 5394 3201 
Q 5691 2819 5691 2113 
L 5691 0 
L 5113 0 
L 5113 2094 
Q 5113 2597 4934 2840 
Q 4756 3084 4391 3084 
Q 3944 3084 3684 2787 
Q 3425 2491 3425 1978 
L 3425 0 
L 2847 0 
L 2847 2094 
Q 2847 2600 2669 2842 
Q 2491 3084 2119 3084 
Q 1678 3084 1418 2786 
Q 1159 2488 1159 1978 
L 1159 0 
L 581 0 
L 581 3500 
L 1159 3500 
L 1159 2956 
Q 1356 3278 1631 3431 
Q 1906 3584 2284 3584 
Q 2666 3584 2933 3390 
Q 3200 3197 3328 2828 
z
" transform="scale(0.015625)"/>
     </defs>
     <use xlink:href="#DejaVuSans-41"/>
     <use xlink:href="#DejaVuSans-66" transform="translate(64.783203 0)"/>
     <use xlink:href="#DejaVuSans-74" transform="translate(98.238281 0)"/>
     <use xlink:href="#DejaVuSans-65" transform="translate(137.447266 0)"/>
     <use xlink:href="#DejaVuSans-72" transform="translate(198.970703 0)"/>
     <use xlink:href="#DejaVuSans-20" transform="translate(240.083984 0)"/>
     <use xlink:href="#DejaVuSans-43" transform="translate(271.871094 0)"/>
     <use xlink:href="#DejaVuSans-6f" transform="translate(341.695312 0)"/>
     <use xlink:href="#DejaVuSans-6d" transform="translate(402.876953 0)"/>
     <use xlink:href="#DejaVuSans-70" transform="translate(500.289062 0)"/>
     <use xlink:href="#DejaVuSans-61" transform="translate(563.765625 0)"/>
     <use xlink:href="#DejaVuSans-63" transform="translate(625.044922 0)"/>
     <use xlink:href="#DejaVuSans-74" transform="translate(680.025391 0)"/>
     <use xlink:href="#DejaVuSans-69" transform="translate(719.234375 0)"/>
     <use xlink:href="#DejaVuSans-6e" transform="translate(747.017578 0)"/>
     <use xlink:href="#DejaVuSans-67" transform="translate(810.396484 0)"/>
    </g>
   </g>
   <g id="text_16">
    <!-- Context Window -->
    <g style="fill: #555555" transform="translate(611.623104 37.932234) scale(0.075 -0.075)">
     <use xlink:href="#DejaVuSans-43"/>
     <use xlink:href="#DejaVuSans-6f" transform="translate(69.824219 0)"/>
     <use xlink:href="#DejaVuSans-6e" transform="translate(131.005859 0)"/>
     <use xlink:href="#DejaVuSans-74" transform="translate(194.384766 0)"/>
     <use xlink:href="#DejaVuSans-65" transform="translate(233.59375 0)"/>
     <use xlink:href="#DejaVuSans-78" transform="translate(293.367188 0)"/>
     <use xlink:href="#DejaVuSans-74" transform="translate(352.546875 0)"/>
     <use xlink:href="#DejaVuSans-20" transform="translate(391.755859 0)"/>
     <use xlink:href="#DejaVuSans-57" transform="translate(423.542969 0)"/>
     <use xlink:href="#DejaVuSans-69" transform="translate(520.169922 0)"/>
     <use xlink:href="#DejaVuSans-6e" transform="translate(547.953125 0)"/>
     <use xlink:href="#DejaVuSans-64" transform="translate(611.332031 0)"/>
     <use xlink:href="#DejaVuSans-6f" transform="translate(674.808594 0)"/>
     <use xlink:href="#DejaVuSans-77" transform="translate(735.990234 0)"/>
    </g>
   </g>
  </g>
  <g id="text_17">
   <!-- → -->
   <g style="fill: #888888" transform="translate(538.218281 232.126875) scale(0.18 -0.18)">
    <defs>
     <path id="DejaVuSans-2192" d="M 5050 2147 
L 5050 1866 
L 3822 638 
L 3447 1013 
L 4175 1741 
L 366 1741 
L 366 2272 
L 4175 2272 
L 3447 3000 
L 3822 3375 
L 5050 2147 
z
" transform="scale(0.015625)"/>
    </defs>
    <use xlink:href="#DejaVuSans-2192"/>
   </g>
  </g>
  <g id="text_18">
   <!-- Compact -->
   <g style="fill: #888888" transform="translate(528.983438 243.269531) scale(0.075 -0.075)">
    <defs>
     <path id="DejaVuSans-Oblique-6d" d="M 5747 2113 
L 5338 0 
L 4763 0 
L 5166 2094 
Q 5191 2228 5203 2325 
Q 5216 2422 5216 2491 
Q 5216 2772 5059 2928 
Q 4903 3084 4622 3084 
Q 4203 3084 3875 2770 
Q 3547 2456 3450 1953 
L 3066 0 
L 2491 0 
L 2900 2094 
Q 2925 2209 2937 2307 
Q 2950 2406 2950 2484 
Q 2950 2769 2794 2926 
Q 2638 3084 2363 3084 
Q 1938 3084 1609 2770 
Q 1281 2456 1184 1953 
L 800 0 
L 225 0 
L 909 3500 
L 1484 3500 
L 1375 2956 
Q 1609 3263 1923 3423 
Q 2238 3584 2597 3584 
Q 2978 3584 3223 3384 
Q 3469 3184 3519 2828 
Q 3781 3197 4126 3390 
Q 4472 3584 4856 3584 
Q 5306 3584 5551 3325 
Q 5797 3066 5797 2591 
Q 5797 2488 5784 2364 
Q 5772 2241 5747 2113 
z
" transform="scale(0.015625)"/>
     <path id="DejaVuSans-Oblique-70" d="M 3175 2156 
Q 3175 2616 2975 2859 
Q 2775 3103 2400 3103 
Q 2144 3103 1911 2972 
Q 1678 2841 1497 2591 
Q 1319 2344 1212 1994 
Q 1106 1644 1106 1300 
Q 1106 863 1306 627 
Q 1506 391 1875 391 
Q 2147 391 2380 519 
Q 2613 647 2778 891 
Q 2956 1147 3065 1494 
Q 3175 1841 3175 2156 
z
M 1394 2969 
Q 1625 3272 1939 3428 
Q 2253 3584 2638 3584 
Q 3175 3584 3472 3232 
Q 3769 2881 3769 2247 
Q 3769 1728 3584 1258 
Q 3400 788 3053 416 
Q 2822 169 2531 39 
Q 2241 -91 1919 -91 
Q 1547 -91 1294 64 
Q 1041 219 916 525 
L 556 -1331 
L -19 -1331 
L 922 3500 
L 1497 3500 
L 1394 2969 
z
" transform="scale(0.015625)"/>
     <path id="DejaVuSans-Oblique-61" d="M 3438 1997 
L 3047 0 
L 2472 0 
L 2578 531 
Q 2325 219 2001 64 
Q 1678 -91 1281 -91 
Q 834 -91 548 182 
Q 263 456 263 884 
Q 263 1497 752 1853 
Q 1241 2209 2100 2209 
L 2900 2209 
L 2931 2363 
Q 2938 2388 2941 2417 
Q 2944 2447 2944 2509 
Q 2944 2788 2717 2942 
Q 2491 3097 2081 3097 
Q 1800 3097 1504 3025 
Q 1209 2953 897 2809 
L 997 3341 
Q 1322 3463 1633 3523 
Q 1944 3584 2234 3584 
Q 2853 3584 3176 3315 
Q 3500 3047 3500 2534 
Q 3500 2431 3484 2292 
Q 3469 2153 3438 1997 
z
M 2816 1759 
L 2241 1759 
Q 1534 1759 1195 1570 
Q 856 1381 856 984 
Q 856 709 1029 553 
Q 1203 397 1509 397 
Q 1978 397 2328 733 
Q 2678 1069 2791 1631 
L 2816 1759 
z
" transform="scale(0.015625)"/>
     <path id="DejaVuSans-Oblique-63" d="M 3431 3366 
L 3316 2797 
Q 3109 2947 2876 3022 
Q 2644 3097 2394 3097 
Q 2119 3097 1870 3000 
Q 1622 2903 1453 2725 
Q 1184 2453 1037 2087 
Q 891 1722 891 1331 
Q 891 859 1127 628 
Q 1363 397 1844 397 
Q 2081 397 2348 469 
Q 2616 541 2906 684 
L 2797 116 
Q 2547 13 2283 -39 
Q 2019 -91 1741 -91 
Q 1044 -91 669 257 
Q 294 606 294 1253 
Q 294 1797 489 2255 
Q 684 2713 1069 3078 
Q 1331 3328 1684 3456 
Q 2038 3584 2456 3584 
Q 2700 3584 2940 3529 
Q 3181 3475 3431 3366 
z
" transform="scale(0.015625)"/>
    </defs>
    <use xlink:href="#DejaVuSans-Oblique-43"/>
    <use xlink:href="#DejaVuSans-Oblique-6f" transform="translate(69.824219 0)"/>
    <use xlink:href="#DejaVuSans-Oblique-6d" transform="translate(131.005859 0)"/>
    <use xlink:href="#DejaVuSans-Oblique-70" transform="translate(228.417969 0)"/>
    <use xlink:href="#DejaVuSans-Oblique-61" transform="translate(291.894531 0)"/>
    <use xlink:href="#DejaVuSans-Oblique-63" transform="translate(353.173828 0)"/>
    <use xlink:href="#DejaVuSans-Oblique-74" transform="translate(408.154297 0)"/>
   </g>
  </g>
  <g id="text_19">
   <!-- How a Context Window Fills — and Why Compacting Matters -->
   <g style="fill: #222222" transform="translate(126.61832 16.698047) scale(0.125 -0.125)">
    <defs>
     <path id="DejaVuSans-Bold-48" d="M 588 4666 
L 1791 4666 
L 1791 2888 
L 3566 2888 
L 3566 4666 
L 4769 4666 
L 4769 0 
L 3566 0 
L 3566 1978 
L 1791 1978 
L 1791 0 
L 588 0 
L 588 4666 
z
" transform="scale(0.015625)"/>
     <path id="DejaVuSans-Bold-77" d="M 225 3500 
L 1313 3500 
L 1900 1088 
L 2491 3500 
L 3425 3500 
L 4013 1113 
L 4603 3500 
L 5691 3500 
L 4769 0 
L 3547 0 
L 2956 2406 
L 2369 0 
L 1147 0 
L 225 3500 
z
" transform="scale(0.015625)"/>
     <path id="DejaVuSans-Bold-20" transform="scale(0.015625)"/>
     <path id="DejaVuSans-Bold-78" d="M 1422 1791 
L 159 3500 
L 1344 3500 
L 2059 2463 
L 2784 3500 
L 3969 3500 
L 2706 1797 
L 4031 0 
L 2847 0 
L 2059 1106 
L 1281 0 
L 97 0 
L 1422 1791 
z
" transform="scale(0.015625)"/>
     <path id="DejaVuSans-Bold-57" d="M 191 4666 
L 1344 4666 
L 2150 1275 
L 2950 4666 
L 4109 4666 
L 4909 1275 
L 5716 4666 
L 6859 4666 
L 5759 0 
L 4372 0 
L 3525 3547 
L 2688 0 
L 1300 0 
L 191 4666 
z
" transform="scale(0.015625)"/>
     <path id="DejaVuSans-Bold-64" d="M 2919 2988 
L 2919 4863 
L 4044 4863 
L 4044 0 
L 2919 0 
L 2919 506 
Q 2688 197 2409 53 
Q 2131 -91 1766 -91 
Q 1119 -91 703 423 
Q 288 938 288 1747 
Q 288 2556 703 3070 
Q 1119 3584 1766 3584 
Q 2128 3584 2408 3439 
Q 2688 3294 2919 2988 
z
M 2181 722 
Q 2541 722 2730 984 
Q 2919 1247 2919 1747 
Q 2919 2247 2730 2509 
Q 2541 2772 2181 2772 
Q 1825 2772 1636 2509 
Q 1447 2247 1447 1747 
Q 1447 1247 1636 984 
Q 1825 722 2181 722 
z
" transform="scale(0.015625)"/>
     <path id="DejaVuSans-Bold-46" d="M 588 4666 
L 3834 4666 
L 3834 3756 
L 1791 3756 
L 1791 2888 
L 3713 2888 
L 3713 1978 
L 1791 1978 
L 1791 0 
L 588 0 
L 588 4666 
z
" transform="scale(0.015625)"/>
     <path id="DejaVuSans-Bold-6c" d="M 538 4863 
L 1656 4863 
L 1656 0 
L 538 0 
L 538 4863 
z
" transform="scale(0.015625)"/>
     <path id="DejaVuSans-Bold-2014" d="M 344 2156 
L 6056 2156 
L 6056 1350 
L 344 1350 
L 344 2156 
z
" transform="scale(0.015625)"/>
     <path id="DejaVuSans-Bold-68" d="M 4056 2131 
L 4056 0 
L 2931 0 
L 2931 347 
L 2931 1625 
Q 2931 2084 2911 2256 
Q 2891 2428 2841 2509 
Q 2775 2619 2662 2680 
Q 2550 2741 2406 2741 
Q 2056 2741 1856 2470 
Q 1656 2200 1656 1722 
L 1656 0 
L 538 0 
L 538 4863 
L 1656 4863 
L 1656 2988 
Q 1909 3294 2193 3439 
Q 2478 3584 2822 3584 
Q 3428 3584 3742 3212 
Q 4056 2841 4056 2131 
z
" transform="scale(0.015625)"/>
     <path id="DejaVuSans-Bold-70" d="M 1656 506 
L 1656 -1331 
L 538 -1331 
L 538 3500 
L 1656 3500 
L 1656 2988 
Q 1888 3294 2169 3439 
Q 2450 3584 2816 3584 
Q 3463 3584 3878 3070 
Q 4294 2556 4294 1747 
Q 4294 938 3878 423 
Q 3463 -91 2816 -91 
Q 2450 -91 2169 54 
Q 1888 200 1656 506 
z
M 2400 2772 
Q 2041 2772 1848 2508 
Q 1656 2244 1656 1747 
Q 1656 1250 1848 986 
Q 2041 722 2400 722 
Q 2759 722 2948 984 
Q 3138 1247 3138 1747 
Q 3138 2247 2948 2509 
Q 2759 2772 2400 2772 
z
" transform="scale(0.015625)"/>
     <path id="DejaVuSans-Bold-63" d="M 3366 3391 
L 3366 2478 
Q 3138 2634 2908 2709 
Q 2678 2784 2431 2784 
Q 1963 2784 1702 2511 
Q 1441 2238 1441 1747 
Q 1441 1256 1702 982 
Q 1963 709 2431 709 
Q 2694 709 2930 787 
Q 3166 866 3366 1019 
L 3366 103 
Q 3103 6 2833 -42 
Q 2563 -91 2291 -91 
Q 1344 -91 809 395 
Q 275 881 275 1747 
Q 275 2613 809 3098 
Q 1344 3584 2291 3584 
Q 2566 3584 2833 3536 
Q 3100 3488 3366 3391 
z
" transform="scale(0.015625)"/>
     <path id="DejaVuSans-Bold-67" d="M 2919 594 
Q 2688 288 2409 144 
Q 2131 0 1766 0 
Q 1125 0 706 504 
Q 288 1009 288 1791 
Q 288 2575 706 3076 
Q 1125 3578 1766 3578 
Q 2131 3578 2409 3434 
Q 2688 3291 2919 2981 
L 2919 3500 
L 4044 3500 
L 4044 353 
Q 4044 -491 3511 -936 
Q 2978 -1381 1966 -1381 
Q 1638 -1381 1331 -1331 
Q 1025 -1281 716 -1178 
L 716 -306 
Q 1009 -475 1290 -558 
Q 1572 -641 1856 -641 
Q 2406 -641 2662 -400 
Q 2919 -159 2919 353 
L 2919 594 
z
M 2181 2772 
Q 1834 2772 1640 2515 
Q 1447 2259 1447 1791 
Q 1447 1309 1634 1061 
Q 1822 813 2181 813 
Q 2531 813 2725 1069 
Q 2919 1325 2919 1791 
Q 2919 2259 2725 2515 
Q 2531 2772 2181 2772 
z
" transform="scale(0.015625)"/>
     <path id="DejaVuSans-Bold-4d" d="M 588 4666 
L 2119 4666 
L 3181 2169 
L 4250 4666 
L 5778 4666 
L 5778 0 
L 4641 0 
L 4641 3413 
L 3566 897 
L 2803 897 
L 1728 3413 
L 1728 0 
L 588 0 
L 588 4666 
z
" transform="scale(0.015625)"/>
    </defs>
    <use xlink:href="#DejaVuSans-Bold-48"/>
    <use xlink:href="#DejaVuSans-Bold-6f" transform="translate(83.691406 0)"/>
    <use xlink:href="#DejaVuSans-Bold-77" transform="translate(152.392578 0)"/>
    <use xlink:href="#DejaVuSans-Bold-20" transform="translate(244.775391 0)"/>
    <use xlink:href="#DejaVuSans-Bold-61" transform="translate(279.589844 0)"/>
    <use xlink:href="#DejaVuSans-Bold-20" transform="translate(347.070312 0)"/>
    <use xlink:href="#DejaVuSans-Bold-43" transform="translate(381.884766 0)"/>
    <use xlink:href="#DejaVuSans-Bold-6f" transform="translate(455.273438 0)"/>
    <use xlink:href="#DejaVuSans-Bold-6e" transform="translate(523.974609 0)"/>
    <use xlink:href="#DejaVuSans-Bold-74" transform="translate(595.166016 0)"/>
    <use xlink:href="#DejaVuSans-Bold-65" transform="translate(642.96875 0)"/>
    <use xlink:href="#DejaVuSans-Bold-78" transform="translate(710.791016 0)"/>
    <use xlink:href="#DejaVuSans-Bold-74" transform="translate(775.292969 0)"/>
    <use xlink:href="#DejaVuSans-Bold-20" transform="translate(823.095703 0)"/>
    <use xlink:href="#DejaVuSans-Bold-57" transform="translate(857.910156 0)"/>
    <use xlink:href="#DejaVuSans-Bold-69" transform="translate(968.212891 0)"/>
    <use xlink:href="#DejaVuSans-Bold-6e" transform="translate(1002.490234 0)"/>
    <use xlink:href="#DejaVuSans-Bold-64" transform="translate(1073.681641 0)"/>
    <use xlink:href="#DejaVuSans-Bold-6f" transform="translate(1145.263672 0)"/>
    <use xlink:href="#DejaVuSans-Bold-77" transform="translate(1213.964844 0)"/>
    <use xlink:href="#DejaVuSans-Bold-20" transform="translate(1306.347656 0)"/>
    <use xlink:href="#DejaVuSans-Bold-46" transform="translate(1341.162109 0)"/>
    <use xlink:href="#DejaVuSans-Bold-69" transform="translate(1409.472656 0)"/>
    <use xlink:href="#DejaVuSans-Bold-6c" transform="translate(1443.75 0)"/>
    <use xlink:href="#DejaVuSans-Bold-6c" transform="translate(1478.027344 0)"/>
    <use xlink:href="#DejaVuSans-Bold-73" transform="translate(1512.304688 0)"/>
    <use xlink:href="#DejaVuSans-Bold-20" transform="translate(1571.826172 0)"/>
    <use xlink:href="#DejaVuSans-Bold-2014" transform="translate(1606.640625 0)"/>
    <use xlink:href="#DejaVuSans-Bold-20" transform="translate(1706.640625 0)"/>
    <use xlink:href="#DejaVuSans-Bold-61" transform="translate(1741.455078 0)"/>
    <use xlink:href="#DejaVuSans-Bold-6e" transform="translate(1808.935547 0)"/>
    <use xlink:href="#DejaVuSans-Bold-64" transform="translate(1880.126953 0)"/>
    <use xlink:href="#DejaVuSans-Bold-20" transform="translate(1951.708984 0)"/>
    <use xlink:href="#DejaVuSans-Bold-57" transform="translate(1986.523438 0)"/>
    <use xlink:href="#DejaVuSans-Bold-68" transform="translate(2096.826172 0)"/>
    <use xlink:href="#DejaVuSans-Bold-79" transform="translate(2168.017578 0)"/>
    <use xlink:href="#DejaVuSans-Bold-20" transform="translate(2233.203125 0)"/>
    <use xlink:href="#DejaVuSans-Bold-43" transform="translate(2268.017578 0)"/>
    <use xlink:href="#DejaVuSans-Bold-6f" transform="translate(2341.40625 0)"/>
    <use xlink:href="#DejaVuSans-Bold-6d" transform="translate(2410.107422 0)"/>
    <use xlink:href="#DejaVuSans-Bold-70" transform="translate(2514.306641 0)"/>
    <use xlink:href="#DejaVuSans-Bold-61" transform="translate(2585.888672 0)"/>
    <use xlink:href="#DejaVuSans-Bold-63" transform="translate(2653.369141 0)"/>
    <use xlink:href="#DejaVuSans-Bold-74" transform="translate(2712.646484 0)"/>
    <use xlink:href="#DejaVuSans-Bold-69" transform="translate(2760.449219 0)"/>
    <use xlink:href="#DejaVuSans-Bold-6e" transform="translate(2794.726562 0)"/>
    <use xlink:href="#DejaVuSans-Bold-67" transform="translate(2865.917969 0)"/>
    <use xlink:href="#DejaVuSans-Bold-20" transform="translate(2937.5 0)"/>
    <use xlink:href="#DejaVuSans-Bold-4d" transform="translate(2972.314453 0)"/>
    <use xlink:href="#DejaVuSans-Bold-61" transform="translate(3071.826172 0)"/>
    <use xlink:href="#DejaVuSans-Bold-74" transform="translate(3139.306641 0)"/>
    <use xlink:href="#DejaVuSans-Bold-74" transform="translate(3187.109375 0)"/>
    <use xlink:href="#DejaVuSans-Bold-65" transform="translate(3234.912109 0)"/>
    <use xlink:href="#DejaVuSans-Bold-72" transform="translate(3302.734375 0)"/>
    <use xlink:href="#DejaVuSans-Bold-73" transform="translate(3352.050781 0)"/>
   </g>
  </g>
  <g id="legend_1">
   <g id="patch_26">
    <path d="M 59.055234 447.837844 
L 74.655234 447.837844 
L 74.655234 442.377844 
L 59.055234 442.377844 
z
" style="fill: #4472c4"/>
   </g>
   <g id="text_20">
    <!-- System prompt + tools -->
    <g transform="translate(80.895234 447.837844) scale(0.078 -0.078)">
     <defs>
      <path id="DejaVuSans-79" d="M 2059 -325 
Q 1816 -950 1584 -1140 
Q 1353 -1331 966 -1331 
L 506 -1331 
L 506 -850 
L 844 -850 
Q 1081 -850 1212 -737 
Q 1344 -625 1503 -206 
L 1606 56 
L 191 3500 
L 800 3500 
L 1894 763 
L 2988 3500 
L 3597 3500 
L 2059 -325 
z
" transform="scale(0.015625)"/>
      <path id="DejaVuSans-2b" d="M 2944 4013 
L 2944 2272 
L 4684 2272 
L 4684 1741 
L 2944 1741 
L 2944 0 
L 2419 0 
L 2419 1741 
L 678 1741 
L 678 2272 
L 2419 2272 
L 2419 4013 
L 2944 4013 
z
" transform="scale(0.015625)"/>
      <path id="DejaVuSans-6c" d="M 603 4863 
L 1178 4863 
L 1178 0 
L 603 0 
L 603 4863 
z
" transform="scale(0.015625)"/>
     </defs>
     <use xlink:href="#DejaVuSans-53"/>
     <use xlink:href="#DejaVuSans-79" transform="translate(63.476562 0)"/>
     <use xlink:href="#DejaVuSans-73" transform="translate(122.65625 0)"/>
     <use xlink:href="#DejaVuSans-74" transform="translate(174.755859 0)"/>
     <use xlink:href="#DejaVuSans-65" transform="translate(213.964844 0)"/>
     <use xlink:href="#DejaVuSans-6d" transform="translate(275.488281 0)"/>
     <use xlink:href="#DejaVuSans-20" transform="translate(372.900391 0)"/>
     <use xlink:href="#DejaVuSans-70" transform="translate(404.6875 0)"/>
     <use xlink:href="#DejaVuSans-72" transform="translate(468.164062 0)"/>
     <use xlink:href="#DejaVuSans-6f" transform="translate(507.027344 0)"/>
     <use xlink:href="#DejaVuSans-6d" transform="translate(568.208984 0)"/>
     <use xlink:href="#DejaVuSans-70" transform="translate(665.621094 0)"/>
     <use xlink:href="#DejaVuSans-74" transform="translate(729.097656 0)"/>
     <use xlink:href="#DejaVuSans-20" transform="translate(768.306641 0)"/>
     <use xlink:href="#DejaVuSans-2b" transform="translate(800.09375 0)"/>
     <use xlink:href="#DejaVuSans-20" transform="translate(883.882812 0)"/>
     <use xlink:href="#DejaVuSans-74" transform="translate(915.669922 0)"/>
     <use xlink:href="#DejaVuSans-6f" transform="translate(954.878906 0)"/>
     <use xlink:href="#DejaVuSans-6f" transform="translate(1016.060547 0)"/>
     <use xlink:href="#DejaVuSans-6c" transform="translate(1077.242188 0)"/>
     <use xlink:href="#DejaVuSans-73" transform="translate(1105.025391 0)"/>
    </g>
   </g>
   <g id="patch_27">
    <path d="M 186.750984 447.837844 
L 202.350984 447.837844 
L 202.350984 442.377844 
L 186.750984 442.377844 
z
" style="fill: #70ad47"/>
   </g>
   <g id="text_21">
    <!-- AGENTS.md / spec docs -->
    <g transform="translate(208.590984 447.837844) scale(0.078 -0.078)">
     <defs>
      <path id="DejaVuSans-47" d="M 3809 666 
L 3809 1919 
L 2778 1919 
L 2778 2438 
L 4434 2438 
L 4434 434 
Q 4069 175 3628 42 
Q 3188 -91 2688 -91 
Q 1594 -91 976 548 
Q 359 1188 359 2328 
Q 359 3472 976 4111 
Q 1594 4750 2688 4750 
Q 3144 4750 3555 4637 
Q 3966 4525 4313 4306 
L 4313 3634 
Q 3963 3931 3569 4081 
Q 3175 4231 2741 4231 
Q 1884 4231 1454 3753 
Q 1025 3275 1025 2328 
Q 1025 1384 1454 906 
Q 1884 428 2741 428 
Q 3075 428 3337 486 
Q 3600 544 3809 666 
z
" transform="scale(0.015625)"/>
      <path id="DejaVuSans-45" d="M 628 4666 
L 3578 4666 
L 3578 4134 
L 1259 4134 
L 1259 2753 
L 3481 2753 
L 3481 2222 
L 1259 2222 
L 1259 531 
L 3634 531 
L 3634 0 
L 628 0 
L 628 4666 
z
" transform="scale(0.015625)"/>
      <path id="DejaVuSans-4e" d="M 628 4666 
L 1478 4666 
L 3547 763 
L 3547 4666 
L 4159 4666 
L 4159 0 
L 3309 0 
L 1241 3903 
L 1241 0 
L 628 0 
L 628 4666 
z
" transform="scale(0.015625)"/>
      <path id="DejaVuSans-54" d="M -19 4666 
L 3928 4666 
L 3928 4134 
L 2272 4134 
L 2272 0 
L 1638 0 
L 1638 4134 
L -19 4134 
L -19 4666 
z
" transform="scale(0.015625)"/>
      <path id="DejaVuSans-2e" d="M 684 794 
L 1344 794 
L 1344 0 
L 684 0 
L 684 794 
z
" transform="scale(0.015625)"/>
      <path id="DejaVuSans-2f" d="M 1625 4666 
L 2156 4666 
L 531 -594 
L 0 -594 
L 1625 4666 
z
" transform="scale(0.015625)"/>
     </defs>
     <use xlink:href="#DejaVuSans-41"/>
     <use xlink:href="#DejaVuSans-47" transform="translate(66.658203 0)"/>
     <use xlink:href="#DejaVuSans-45" transform="translate(144.148438 0)"/>
     <use xlink:href="#DejaVuSans-4e" transform="translate(207.332031 0)"/>
     <use xlink:href="#DejaVuSans-54" transform="translate(282.136719 0)"/>
     <use xlink:href="#DejaVuSans-53" transform="translate(343.220703 0)"/>
     <use xlink:href="#DejaVuSans-2e" transform="translate(406.697266 0)"/>
     <use xlink:href="#DejaVuSans-6d" transform="translate(438.484375 0)"/>
     <use xlink:href="#DejaVuSans-64" transform="translate(535.896484 0)"/>
     <use xlink:href="#DejaVuSans-20" transform="translate(599.373047 0)"/>
     <use xlink:href="#DejaVuSans-2f" transform="translate(631.160156 0)"/>
     <use xlink:href="#DejaVuSans-20" transform="translate(664.851562 0)"/>
     <use xlink:href="#DejaVuSans-73" transform="translate(696.638672 0)"/>
     <use xlink:href="#DejaVuSans-70" transform="translate(748.738281 0)"/>
     <use xlink:href="#DejaVuSans-65" transform="translate(812.214844 0)"/>
     <use xlink:href="#DejaVuSans-63" transform="translate(873.738281 0)"/>
     <use xlink:href="#DejaVuSans-20" transform="translate(928.71875 0)"/>
     <use xlink:href="#DejaVuSans-64" transform="translate(960.505859 0)"/>
     <use xlink:href="#DejaVuSans-6f" transform="translate(1023.982422 0)"/>
     <use xlink:href="#DejaVuSans-63" transform="translate(1085.164062 0)"/>
     <use xlink:href="#DejaVuSans-73" transform="translate(1140.144531 0)"/>
    </g>
   </g>
   <g id="patch_28">
    <path d="M 317.186484 447.837844 
L 332.786484 447.837844 
L 332.786484 442.377844 
L 317.186484 442.377844 
z
" style="fill: #e05c5c"/>
   </g>
   <g id="text_22">
    <!-- Conversation history -->
    <g transform="translate(339.026484 447.837844) scale(0.078 -0.078)">
     <defs>
      <path id="DejaVuSans-76" d="M 191 3500 
L 800 3500 
L 1894 563 
L 2988 3500 
L 3597 3500 
L 2284 0 
L 1503 0 
L 191 3500 
z
" transform="scale(0.015625)"/>
     </defs>
     <use xlink:href="#DejaVuSans-43"/>
     <use xlink:href="#DejaVuSans-6f" transform="translate(69.824219 0)"/>
     <use xlink:href="#DejaVuSans-6e" transform="translate(131.005859 0)"/>
     <use xlink:href="#DejaVuSans-76" transform="translate(194.384766 0)"/>
     <use xlink:href="#DejaVuSans-65" transform="translate(253.564453 0)"/>
     <use xlink:href="#DejaVuSans-72" transform="translate(315.087891 0)"/>
     <use xlink:href="#DejaVuSans-73" transform="translate(356.201172 0)"/>
     <use xlink:href="#DejaVuSans-61" transform="translate(408.300781 0)"/>
     <use xlink:href="#DejaVuSans-74" transform="translate(469.580078 0)"/>
     <use xlink:href="#DejaVuSans-69" transform="translate(508.789062 0)"/>
     <use xlink:href="#DejaVuSans-6f" transform="translate(536.572266 0)"/>
     <use xlink:href="#DejaVuSans-6e" transform="translate(597.753906 0)"/>
     <use xlink:href="#DejaVuSans-20" transform="translate(661.132812 0)"/>
     <use xlink:href="#DejaVuSans-68" transform="translate(692.919922 0)"/>
     <use xlink:href="#DejaVuSans-69" transform="translate(756.298828 0)"/>
     <use xlink:href="#DejaVuSans-73" transform="translate(784.082031 0)"/>
     <use xlink:href="#DejaVuSans-74" transform="translate(836.181641 0)"/>
     <use xlink:href="#DejaVuSans-6f" transform="translate(875.390625 0)"/>
     <use xlink:href="#DejaVuSans-72" transform="translate(936.572266 0)"/>
     <use xlink:href="#DejaVuSans-79" transform="translate(977.685547 0)"/>
    </g>
   </g>
   <g id="patch_29">
    <path d="M 435.501516 447.837844 
L 451.101516 447.837844 
L 451.101516 442.377844 
L 435.501516 442.377844 
z
" style="fill: #9b59b6"/>
   </g>
   <g id="text_23">
    <!-- Compacted summary -->
    <g transform="translate(457.341516 447.837844) scale(0.078 -0.078)">
     <defs>
      <path id="DejaVuSans-75" d="M 544 1381 
L 544 3500 
L 1119 3500 
L 1119 1403 
Q 1119 906 1312 657 
Q 1506 409 1894 409 
Q 2359 409 2629 706 
Q 2900 1003 2900 1516 
L 2900 3500 
L 3475 3500 
L 3475 0 
L 2900 0 
L 2900 538 
Q 2691 219 2414 64 
Q 2138 -91 1772 -91 
Q 1169 -91 856 284 
Q 544 659 544 1381 
z
M 1991 3584 
L 1991 3584 
z
" transform="scale(0.015625)"/>
     </defs>
     <use xlink:href="#DejaVuSans-43"/>
     <use xlink:href="#DejaVuSans-6f" transform="translate(69.824219 0)"/>
     <use xlink:href="#DejaVuSans-6d" transform="translate(131.005859 0)"/>
     <use xlink:href="#DejaVuSans-70" transform="translate(228.417969 0)"/>
     <use xlink:href="#DejaVuSans-61" transform="translate(291.894531 0)"/>
     <use xlink:href="#DejaVuSans-63" transform="translate(353.173828 0)"/>
     <use xlink:href="#DejaVuSans-74" transform="translate(408.154297 0)"/>
     <use xlink:href="#DejaVuSans-65" transform="translate(447.363281 0)"/>
     <use xlink:href="#DejaVuSans-64" transform="translate(508.886719 0)"/>
     <use xlink:href="#DejaVuSans-20" transform="translate(572.363281 0)"/>
     <use xlink:href="#DejaVuSans-73" transform="translate(604.150391 0)"/>
     <use xlink:href="#DejaVuSans-75" transform="translate(656.25 0)"/>
     <use xlink:href="#DejaVuSans-6d" transform="translate(719.628906 0)"/>
     <use xlink:href="#DejaVuSans-6d" transform="translate(817.041016 0)"/>
     <use xlink:href="#DejaVuSans-61" transform="translate(914.453125 0)"/>
     <use xlink:href="#DejaVuSans-72" transform="translate(975.732422 0)"/>
     <use xlink:href="#DejaVuSans-79" transform="translate(1016.845703 0)"/>
    </g>
   </g>
   <g id="patch_30">
    <path d="M 556.871953 447.837844 
L 572.471953 447.837844 
L 572.471953 442.377844 
L 556.871953 442.377844 
z
" style="fill: #f0f0f0; stroke: #aaaaaa; stroke-linejoin: miter"/>
   </g>
   <g id="text_24">
    <!-- Free space -->
    <g transform="translate(578.711953 447.837844) scale(0.078 -0.078)">
     <use xlink:href="#DejaVuSans-46"/>
     <use xlink:href="#DejaVuSans-72" transform="translate(50.269531 0)"/>
     <use xlink:href="#DejaVuSans-65" transform="translate(89.132812 0)"/>
     <use xlink:href="#DejaVuSans-65" transform="translate(150.65625 0)"/>
     <use xlink:href="#DejaVuSans-20" transform="translate(212.179688 0)"/>
     <use xlink:href="#DejaVuSans-73" transform="translate(243.966797 0)"/>
     <use xlink:href="#DejaVuSans-70" transform="translate(296.066406 0)"/>
     <use xlink:href="#DejaVuSans-61" transform="translate(359.542969 0)"/>
     <use xlink:href="#DejaVuSans-63" transform="translate(420.822266 0)"/>
     <use xlink:href="#DejaVuSans-65" transform="translate(475.802734 0)"/>
    </g>
   </g>
  </g>
 </g>
 <defs>
  <clipPath id="p61b889dc7a">
   <rect x="7.2" y="49.32" width="139.580198" height="327.6"/>
  </clipPath>
  <clipPath id="p131dc35c91">
   <rect x="195.633267" y="49.32" width="139.580198" height="327.6"/>
  </clipPath>
  <clipPath id="p0200bb03e5">
   <rect x="384.066535" y="49.32" width="139.580198" height="327.6"/>
  </clipPath>
  <clipPath id="p655fc715f9">
   <rect x="572.499802" y="49.32" width="139.580198" height="327.6"/>
  </clipPath>
 </defs>
</svg>
